<svg enable-background="new 37.101 0 209.26 76.129" height="76.129" viewBox="37.101 0 209.26 76.129" width="209.26" xmlns="http://www.w3.org/2000/svg"><g fill="#fff"><path d="m146.201 35.565-15.44-33.258h-2.383l-9.748 47.37h7.767l5.354-28.62 14.315 30.798 14.741-30.77 4.807 28.591h7.703l-8.758-47.37h-2.365z"/><path d="m39.909 74.719c-.36.002-.716-.066-1.048-.203-.318-.133-.604-.331-.839-.583-.255-.274-.454-.598-.583-.95-.142-.416-.211-.854-.204-1.293-.007-.439.068-.876.222-1.288.131-.351.329-.673.583-.95.24-.253.533-.451.856-.582.322-.133.666-.2 1.014-.198.359-.006.716.043 1.061.146.118.033.233.076.344.129.077.03.151.067.221.11l-.204.583h-.042c-.165-.097-.339-.177-.519-.239-.25-.083-.512-.122-.775-.116-.318-.009-.635.053-.926.18-.256.112-.482.284-.659.502-.187.227-.324.49-.402.774-.097.323-.144.659-.14.997-.004.344.043.688.14 1.02.079.279.211.54.39.769.172.208.389.374.636.483.272.121.569.181.868.175.304.007.608-.028.903-.104.202-.048.397-.119.583-.21h.035v.041l.163.507c-.064.041-.132.074-.204.1-.093.034-.21.075-.361.116-.165.04-.332.071-.501.093-.205.007-.409.005-.612-.009z"/><path d="m48.707 74.591h-.687c-.117-.216-.239-.437-.379-.658s-.274-.443-.408-.642c-.134-.197-.279-.401-.413-.582l-.333-.449c-.17.009-.342.009-.513 0h-.897v2.331h-.635v-5.687c.23-.064.466-.105.705-.123.263 0 .513-.034.74-.034.635-.044 1.268.115 1.806.454.417.32.646.828.612 1.352.021.377-.103.747-.344 1.037-.236.251-.533.436-.862.536.093.11.198.251.314.402.117.151.286.401.432.617s.303.466.442.705c.14.239.263.472.367.693zm-3.63-2.866h.74c.245 0 .49-.012.734-.035.202-.021.399-.076.583-.164.16-.08.294-.203.39-.354.103-.195.151-.415.14-.636.005-.203-.043-.403-.14-.582-.094-.156-.224-.288-.378-.385-.166-.096-.348-.161-.536-.192-.21-.035-.422-.053-.635-.052-.204 0-.39 0-.547 0l-.361.034z"/><path d="m55.069 74.591h-3.595v-5.827h3.402v.583h-2.768v1.923h2.447v.583h-2.447v2.208h2.96v.53zm-2.185-6.095-.338-.385 1.334-1.287.431.478z"/><path d="m62.696 74.591h-.699c-.111-.286-.21-.583-.303-.81l-.251-.734h-2.762c-.093.238-.187.483-.273.734-.088.25-.198.582-.292.81h-.67v-.047c.216-.583.426-1.165.618-1.666s.384-1.009.582-1.469.361-.892.583-1.322.379-.856.583-1.276h.542c.198.414.39.846.583 1.276s.373.88.554 1.322c.181.443.379.962.583 1.469s.378 1.061.6 1.644zm-3.81-2.121h2.331c-.215-.583-.414-1.071-.583-1.538-.169-.466-.391-.932-.583-1.369-.204.455-.396.92-.583 1.369-.186.449-.378.99-.582 1.538z"/><path d="m66.786 74.591h-.635v-5.244h-1.835v-.583h4.306v.583h-1.836z"/><path d="m74.961 74.591h-3.595v-5.827h3.379v.583h-2.75v1.923h2.453v.583h-2.453v2.208h2.966z"/><path d="m79.884 74.719c-.337.008-.672-.054-.985-.181-.258-.104-.487-.273-.664-.489-.172-.214-.297-.463-.367-.729-.076-.291-.113-.59-.11-.891v-3.643h.635v3.566c-.007.271.03.544.111.804.055.214.157.413.297.583.125.145.286.255.466.32.398.147.837.147 1.235 0 .18-.065.341-.176.466-.32.143-.169.245-.368.297-.583.08-.261.118-.532.111-.804v-3.566h.635v3.643c.004.301-.033.6-.11.891-.071.266-.196.514-.367.729-.177.216-.405.385-.664.489-.313.127-.648.189-.986.181z"/><path d="m89.585 74.591h-.682c-.111-.216-.239-.437-.373-.658-.134-.222-.28-.443-.414-.642-.134-.197-.279-.401-.408-.582l-.338-.449c-.17.009-.342.009-.513 0h-.885v2.331h-.635v-5.687c.23-.063.467-.104.705-.123.262 0 .513-.034.746-.034.633-.044 1.264.115 1.8.454.418.32.649.826.618 1.352.021.378-.104.75-.35 1.037-.234.251-.529.436-.856.536l.309.402c.146.192.291.401.437.617s.297.466.437.705c.137.224.259.455.367.693zm-3.624-2.866h.74c.243 0 .486-.012.729-.035.202-.021.399-.076.583-.164.16-.079.296-.202.39-.354.105-.194.156-.415.146-.636.003-.203-.047-.404-.146-.582-.09-.159-.221-.292-.379-.385-.166-.096-.347-.161-.536-.192-.21-.036-.423-.053-.636-.052-.204 0-.39 0-.547 0l-.355.034z"/><path d="m97.591 74.643c-.243.001-.486-.013-.728-.04-.228-.018-.454-.055-.676-.11h-.029v-5.583h.029c.22-.063.447-.104.676-.123.25 0 .496-.035.728-.035.435-.005.867.056 1.282.182.375.12.721.318 1.014.582.286.254.511.568.658.921.311.834.311 1.753 0 2.587-.147.353-.372.667-.658.92-.296.254-.641.441-1.014.555-.417.112-.85.161-1.282.144zm-.798-.618h.221c.213.022.427.032.641.029.364.006.728-.051 1.072-.169.288-.101.551-.264.769-.478.208-.213.366-.47.46-.752.21-.649.21-1.349 0-1.998-.097-.279-.254-.533-.46-.746-.218-.212-.48-.373-.769-.472-.345-.121-.708-.179-1.072-.169-.214-.012-.428-.012-.641 0h-.221z"/><path d="m107.479 74.591h-3.595v-5.827h3.379v.583h-2.745v1.923h2.447v.583h-2.447v2.208h2.96v.53z"/><path d="m115.473 74.719c-.205 0-.409-.016-.612-.047-.166-.021-.33-.056-.49-.104-.125-.032-.248-.075-.367-.128-.082-.034-.162-.073-.239-.117l.209-.553h.035l.221.11c.106.05.215.093.326.128.139.045.281.078.426.1.173.029.349.043.524.041.355.021.71-.062 1.02-.239.244-.172.379-.46.355-.758.005-.176-.035-.351-.117-.507-.076-.139-.181-.258-.309-.35-.137-.098-.285-.178-.442-.238l-.542-.222c-.233-.093-.449-.187-.641-.286-.177-.092-.339-.207-.484-.344-.133-.123-.24-.271-.315-.437-.074-.185-.109-.384-.104-.583-.032-.446.155-.881.501-1.165.405-.277.891-.413 1.381-.384.154-.001.308.011.46.034.267.04.529.108.781.204.097.037.188.086.273.146l-.227.542h-.041c-.18-.115-.376-.201-.583-.256-.237-.066-.482-.1-.729-.1-.166-.002-.332.016-.495.053-.136.031-.265.088-.378.169-.104.077-.19.177-.25.291-.062.131-.092.274-.087.419-.005.15.026.298.093.432.066.117.158.219.268.297.127.096.264.176.408.239l.519.222.646.285c.191.086.37.197.53.332.152.135.277.297.367.479.095.216.141.451.134.688.018.455-.189.891-.553 1.165-.432.296-.947.452-1.472.442z"/><path d="m122.884 74.719c-.359 0-.715-.066-1.049-.197-.328-.129-.625-.328-.868-.583-.256-.274-.454-.598-.583-.95-.149-.423-.222-.868-.215-1.316-.007-.444.066-.887.215-1.305.127-.352.326-.674.583-.944.242-.257.539-.456.868-.583.335-.129.69-.194 1.049-.192.356-.002.711.063 1.043.192.329.127.626.326.868.583.257.271.455.593.583.944.151.418.225.859.215 1.305.009.448-.064.895-.215 1.316-.129.353-.327.676-.583.95-.243.255-.54.454-.868.583-.332.13-.686.197-1.043.197zm0-5.477c-.292-.006-.582.05-.851.163-.249.11-.47.276-.646.483-.185.229-.325.489-.414.77-.194.672-.194 1.385 0 2.057.089.279.229.54.414.77.176.207.397.372.646.482.541.233 1.154.233 1.695 0 .251-.107.472-.273.647-.482.187-.228.327-.489.414-.77.202-.671.202-1.387 0-2.057-.087-.281-.227-.543-.414-.77-.175-.209-.396-.375-.647-.483-.266-.112-.554-.169-.844-.163z"/><path d="m132.043 74.591h-3.333v-5.827h.635v5.244h2.697v.583z"/><path d="m136.827 74.719c-.331-.001-.657-.068-.961-.197-.259-.105-.487-.274-.664-.49-.173-.213-.299-.462-.367-.729-.077-.291-.114-.59-.11-.891v-3.642h.635v3.566c-.005.271.03.543.105.805.057.213.161.412.303.582.125.145.286.256.466.32.398.148.837.148 1.235 0 .18-.064.341-.176.466-.32.141-.17.242-.369.297-.582.081-.261.118-.532.111-.805v-3.566h.635v3.643c.004.301-.034.6-.11.891-.07.266-.195.515-.367.729-.177.216-.406.385-.664.49-.32.133-.664.202-1.01.196z"/><path d="m144.139 74.591h-.635v-5.244h-1.812v-.583h4.306v.583h-1.859z"/><path d="m149.348 74.591h-.629v-5.827h.629z"/><path d="m155.18 74.719c-.358.001-.715-.066-1.049-.197-.328-.129-.624-.328-.867-.583-.256-.274-.454-.598-.583-.95-.149-.423-.222-.868-.216-1.316-.006-.444.066-.887.216-1.305.127-.352.325-.674.583-.944.242-.257.539-.456.867-.583.674-.259 1.419-.259 2.092 0 .33.127.626.326.869.583.256.271.455.593.582.944.152.418.225.859.216 1.305.009.448-.063.895-.216 1.316-.129.353-.326.676-.582.95-.244.255-.54.454-.869.583-.332.13-.686.197-1.043.197zm0-5.477c-.291-.006-.581.05-.85.163-.251.108-.473.274-.647.483-.185.229-.324.489-.413.77-.194.672-.194 1.385 0 2.057.089.279.229.54.413.77.177.207.397.372.647.482.541.233 1.154.233 1.695 0 .249-.11.47-.275.646-.482.188-.227.328-.488.414-.77.193-.672.193-1.385 0-2.057-.085-.282-.226-.544-.414-.77-.177-.207-.397-.373-.646-.483-.267-.112-.555-.169-.845-.163z"/><path d="m165.452 74.591h-.53c-.099-.187-.232-.408-.396-.676-.162-.269-.344-.548-.535-.827l-.624-.897c-.21-.304-.419-.583-.641-.909s-.414-.582-.618-.833c-.203-.251-.344-.431-.478-.583v4.761h-.623v-5.827h.495c.285.32.582.688.909 1.09.326.402.635.833.943 1.259.31.425.583.851.868 1.259.285.407.432.676.583.949v-4.568h.623z"/><path d="m170.049 74.719c-.204.001-.408-.015-.611-.047-.166-.02-.33-.055-.489-.104-.128-.032-.253-.075-.373-.128-.08-.034-.157-.073-.233-.117l.204-.553h.041l.216.11c.093.041.204.087.326.128.139.045.281.078.426.1.173.029.348.043.523.041.358.021.715-.062 1.025-.239.244-.172.38-.46.355-.758.006-.176-.034-.351-.116-.507-.075-.139-.181-.258-.309-.35-.14-.098-.29-.178-.448-.238l-.537-.222c-.238-.093-.454-.192-.641-.286-.176-.095-.34-.21-.489-.344-.133-.121-.238-.271-.309-.437-.074-.185-.11-.384-.104-.583-.032-.446.154-.881.5-1.165.405-.278.891-.413 1.382-.384.153-.001.308.011.46.034.142.021.281.05.42.087.122.033.242.072.361.117.095.04.187.089.273.146l-.228.542h-.034c-.181-.115-.377-.201-.583-.256-.239-.067-.486-.101-.734-.1-.165-.002-.329.016-.489.053-.137.031-.265.088-.379.169-.104.074-.189.172-.25.285-.064.133-.096.278-.094.425-.004.15.03.299.1.432.062.118.152.221.262.297.129.096.268.176.414.239l.518.222c.222.093.443.187.642.285.192.086.373.197.536.332.152.133.275.295.361.479.1.215.147.45.14.688.013.461-.206.898-.583 1.165-.427.293-.934.448-1.452.442z"/><path d="m183.234 74.591h-.529c-.1-.187-.233-.408-.396-.676-.163-.269-.35-.548-.536-.827l-.63-.897c-.203-.304-.419-.583-.635-.909-.215-.326-.42-.582-.623-.833-.204-.251-.338-.431-.473-.583v4.761h-.629v-5.827h.501c.286.32.583.688.903 1.09s.641.833.949 1.259c.31.425.583.851.869 1.259.285.407.431.676.582.949v-4.568h.629z"/><path d="m188.671 74.719c-.337.008-.672-.054-.984-.181-.259-.104-.487-.273-.665-.489-.172-.214-.297-.463-.367-.729-.076-.291-.113-.59-.11-.891v-3.643h.636v3.566c-.008.271.03.544.11.804.055.216.158.415.303.583.123.147.284.258.466.32.195.074.403.112.612.111.211 0 .42-.037.618-.111.18-.065.34-.176.466-.32.142-.17.245-.369.303-.583.077-.261.114-.532.11-.804v-3.566h.63v3.643c.003.301-.034.6-.111.891-.068.267-.193.516-.366.729-.178.216-.406.385-.665.489-.314.127-.649.189-.986.181z"/><path d="m199.998 74.591h-.624v-.035c-.035-.897-.075-1.748-.116-2.54-.041-.793-.088-1.48-.157-2.127l-.146.291-.326.652-.42.775-.391.828-.344.739c-.093.216-.175.396-.232.542h-.554c-.059-.14-.14-.326-.239-.542s-.204-.454-.344-.739c-.14-.286-.256-.543-.391-.828-.134-.285-.273-.582-.379-.798l-.326-.653c-.063-.128-.11-.221-.151-.291-.063.646-.116 1.357-.157 2.127s-.082 1.689-.11 2.54v.035h-.63v-.035c.047-1.043.105-2.045.17-2.995.063-.949.139-1.869.232-2.738v-.035h.548c.169.28.35.583.53.956s.379.746.582 1.13l.542 1.166.426.943c.122-.279.268-.582.425-.943.158-.361.367-.793.542-1.166.175-.372.373-.769.583-1.13s.361-.676.53-.956h.524v.035c.093.852.175 1.748.238 2.738.064.991.123 1.97.17 2.995z"/><path d="m206.779 74.591h-3.595v-5.827h3.38v.583h-2.744v1.923h2.446v.583h-2.446v2.208h2.959zm-2.161-6.095-.314-.367 1.334-1.287.431.478z"/><path d="m213.94 74.591h-.682c-.11-.216-.239-.437-.373-.658s-.274-.438-.413-.642c-.141-.203-.28-.401-.408-.582l-.338-.449c-.169.009-.338.009-.507 0h-.892v2.331h-.635v-5.687c.23-.062.467-.104.705-.123.268 0 .518-.034.745-.034.635-.044 1.268.116 1.807.454.416.32.646.828.611 1.352.021.378-.104.75-.35 1.037-.232.252-.528.438-.856.536.082.099.181.233.309.402.129.169.292.396.438.617s.291.454.437.705c.147.216.281.439.402.671zm-3.624-2.866h.74c.245 0 .49-.012.734-.035.201-.021.398-.076.582-.164.16-.079.296-.202.391-.354.107-.194.158-.414.146-.636.005-.203-.045-.404-.146-.582-.09-.158-.219-.29-.373-.385-.167-.097-.352-.162-.542-.192-.21-.036-.422-.054-.635-.052-.206 0-.387 0-.542 0l-.361.034z"/><path d="m217.354 74.591h-.635v-5.827h.635z"/><path d="m225.36 76.129h-.035l-.676-.146c-.241-.058-.476-.14-.699-.245-.217-.104-.413-.243-.583-.414-.157-.16-.268-.362-.32-.582-.326-.018-.648-.093-.949-.221-.315-.135-.6-.333-.833-.583-.257-.272-.455-.593-.583-.944-.146-.413-.218-.85-.21-1.287-.006-.445.067-.887.216-1.306.127-.351.326-.673.582-.944.243-.256.539-.455.869-.582.673-.259 1.418-.259 2.092 0 .328.127.625.326.867.582.258.271.456.594.583.944.273.807.288 1.679.041 2.494-.107.323-.269.628-.478.897-.199.238-.442.437-.717.582-.263.141-.546.239-.84.291.023.134.091.256.193.344.125.112.267.205.419.274.178.081.363.144.554.187.198.041.396.082.582.11h.041zm-2.172-6.887c-.292-.006-.582.05-.852.163-.25.108-.472.274-.646.483-.184.229-.324.489-.414.77-.193.672-.193 1.385 0 2.057.09.279.23.54.414.77.177.207.397.372.646.482.541.233 1.154.233 1.696 0 .249-.11.47-.275.646-.482.188-.227.328-.488.413-.77.194-.672.194-1.385 0-2.057-.084-.282-.225-.544-.413-.77-.177-.207-.397-.373-.646-.483-.267-.112-.555-.169-.844-.163z"/><path d="m231.117 74.719c-.338.008-.672-.054-.984-.181-.26-.104-.487-.273-.665-.489-.172-.214-.297-.463-.367-.729-.079-.29-.118-.59-.116-.891v-3.643h.635v3.566c-.004.271.033.543.111.804.057.214.16.413.303.583.125.145.286.255.466.32.396.148.833.148 1.229 0 .182-.063.342-.174.467-.32.145-.168.248-.367.303-.583.08-.26.117-.532.11-.804v-3.566h.636v3.643c.003.301-.034.6-.111.891-.068.267-.193.516-.367.729-.177.216-.405.385-.664.489-.314.127-.649.189-.986.181z"/><path d="m240.16 74.591h-3.596v-5.827h3.38v.583h-2.757v1.923h2.447v.583h-2.447v2.208h2.973z"/><path d="m244.326 74.719c-.195 0-.391-.016-.583-.047-.166-.02-.33-.055-.489-.104-.128-.032-.253-.075-.373-.128-.081-.033-.158-.072-.233-.117h-.029l.21-.553h.035l.221.11c.094.041.205.087.327.128.139.045.28.078.425.1.174.029.349.043.524.041.356.022.711-.061 1.02-.239.248-.169.386-.458.361-.758.006-.176-.034-.351-.116-.507-.075-.139-.182-.258-.309-.35-.14-.098-.29-.178-.449-.238l-.536-.222c-.238-.093-.454-.192-.641-.286-.177-.094-.341-.209-.489-.344-.133-.121-.238-.271-.309-.437-.074-.185-.11-.384-.105-.583-.031-.446.155-.881.501-1.165.405-.278.891-.413 1.382-.384.153-.001.308.011.46.034.142.021.281.05.419.087.129.035.251.076.361.117.096.04.188.089.273.146l-.227.542h-.035c-.18-.115-.376-.201-.582-.256-.239-.067-.486-.101-.734-.1-.165-.002-.329.016-.49.053-.136.031-.264.088-.378.169-.106.073-.192.171-.251.285-.128.271-.128.585 0 .856.062.118.152.221.263.297.128.096.267.176.413.239l.519.222c.222.093.443.187.642.285.192.086.373.197.535.332.152.133.275.295.361.479.1.215.148.45.141.688.013.461-.206.898-.583 1.165-.427.294-.934.449-1.452.443z"/><path d="m114.563 2.307v47.37h-7.51v-47.37z"/><path d="m182.711 2.307v27.588c0 4.273.699 7.4 2.097 9.381 2.086 2.858 5.021 4.288 8.804 4.288s6.729-1.43 8.834-4.288c1.397-1.911 2.097-5.038 2.097-9.381v-27.588h7.517v29.68c0 5.244-1.634 9.565-4.9 12.964-7.34 7.473-19.348 7.579-26.82.238-.08-.078-.159-.158-.238-.238-3.27-3.395-4.903-7.716-4.899-12.964v-29.68z"/><path d="m234.816 9.369v40.308h-7.51v-40.308h-11.449v-7.062h30.373v7.062z"/><path d="m87.226 49.677h14.688v-6.718h-17.87z"/><path d="m77.088 28.491 3.012 6.363c9.154-8.11 17.398-19.216 24.25-32.5v-.047h-32.465v6.724h20.434c-4.2 7.128-9.321 13.671-15.231 19.46z"/></g><path d="m61.467 0-24.366 49.677c2.568.445 5.171.669 7.778.67 9.153 0 17.998-2.843 26.266-8.034l-2.791-6.095c-6.409 4.183-13.162 6.707-20.2 7.306l13.186-27.506 15.423 33.66h8.028z" fill="#f76a33"/></svg>