<?xml version="1.0" encoding="utf-8"?>
<!-- Generator: Adobe Illustrator 16.0.0, SVG Export Plug-In . SVG Version: 6.00 Build 0)  -->
<!DOCTYPE svg PUBLIC "-//W3C//DTD SVG 1.1//EN" "http://www.w3.org/Graphics/SVG/1.1/DTD/svg11.dtd">
<svg version="1.1" id="Calque_1" xmlns="http://www.w3.org/2000/svg" xmlns:xlink="http://www.w3.org/1999/xlink" x="0px" y="0px"
	 width="200px" height="200px" viewBox="0 0 200 200" style="enable-background:new 0 0 200 200;" xml:space="preserve">
<g>
	<g id="XMLID_37_">
		<g>
			<path id="XMLID_190_" style="fill:#FFFFFF;stroke:#FFFFFF;stroke-width:3;stroke-miterlimit:10;" d="M81.9,44.3
				c0.2,0,0.5,0,0.8,0c0.9,0.9,1.1,2.4,1,3.5c-0.1,1.1-0.4,2.2-0.8,3.4c-0.1,0.5-0.3,1-0.4,1.5c-0.6,2.3-0.6,4.2,0.1,5.8
				c0.2,0.4,0.5,0.6,0.9,0.6c0.1,0,0.3,0,0.4-0.1c0.5-0.2,0.7-0.8,0.5-1.3c-0.5-1.1-0.5-2.6,0-4.5c0.1-0.5,0.3-1,0.4-1.4
				c0.4-1.2,0.7-2.5,0.9-3.8c0.1-1.8-0.3-3.4-1.1-4.6c0.2-0.2,0.5-0.5,0.7-0.8c0.5-0.8,0.9-1.8,1.1-2.7c0.1-0.5-0.2-1-0.8-1.1
				c-0.5-0.1-1,0.2-1.1,0.8c-0.1,0.7-0.4,1.4-0.8,2c-0.2,0.4-0.5,0.6-0.7,0.7c-0.2,0-0.3,0.1-0.4,0.1c-0.2,0-0.3,0-0.5,0
				c-1.1,0-2.1,0-2.7-0.6c-0.4-0.4-1-0.4-1.4,0c-0.4,0.4-0.4,1,0,1.4C78.9,44.2,80.4,44.3,81.9,44.3C81.9,44.3,81.9,44.3,81.9,44.3z
				"/>
			<path id="XMLID_189_" style="fill:#FFFFFF;stroke:#FFFFFF;stroke-width:3;stroke-miterlimit:10;" d="M64.5,74.7
				c0.2,0,0.4,0,0.5-0.1c0.5-0.3,0.6-0.9,0.3-1.3c-0.7-1.1-0.8-2.5-0.3-3.7c0.1-0.3,0.3-0.7,0.5-1c0.2-0.3,0.4-0.6,0.5-1
				c1-2.1,0.9-4.6-0.3-6.7c-0.3-0.5-0.9-0.6-1.3-0.4c-0.5,0.3-0.6,0.9-0.4,1.3c0.8,1.5,0.9,3.3,0.2,4.9c-0.1,0.3-0.3,0.6-0.5,0.9
				c-0.2,0.4-0.5,0.8-0.7,1.3c-0.7,1.8-0.6,3.9,0.5,5.5C63.9,74.5,64.2,74.7,64.5,74.7z"/>
			<path id="XMLID_188_" style="fill:#FFFFFF;stroke:#FFFFFF;stroke-width:3;stroke-miterlimit:10;" d="M81.9,74.2
				c0.3,0.9,0.3,1.9-0.1,2.8c-0.2,0.5,0.1,1.1,0.6,1.2c0.1,0,0.2,0.1,0.3,0.1c0.4,0,0.8-0.2,0.9-0.6c0.5-1.3,0.5-2.7,0.1-4
				c-0.1-0.5-0.3-0.9-0.5-1.3c-0.1-0.3-0.3-0.6-0.4-0.8c-0.8-2.2-0.2-4.9,1.4-6.6c0.4-0.4,0.4-1,0-1.4s-1-0.4-1.4,0
				c-2.2,2.2-2.9,5.7-1.9,8.6c0.1,0.3,0.3,0.7,0.4,1C81.7,73.5,81.8,73.9,81.9,74.2z"/>
			<path id="XMLID_187_" style="fill:#FFFFFF;stroke:#FFFFFF;stroke-width:3;stroke-miterlimit:10;" d="M53.1,81.4
				c0.2,0.2,0.4,0.3,0.6,0.4C53,83.2,53,85,53.9,86.4c0.2,0.3,0.5,0.5,0.8,0.5c0.2,0,0.4,0,0.5-0.1c0.5-0.3,0.6-0.9,0.3-1.3
				c-0.5-0.9-0.5-2.1,0.1-2.9c0.5,0.1,1,0.1,1.4,0c0.6-0.1,1.1-0.3,1.6-0.4c0.4-0.1,0.7-0.2,1-0.3c1.7-0.3,3.6,0.4,4.9,1.8
				c0.2,0.2,0.3,0.4,0.4,0.5c0,0,0,0,0,0.1c-0.6,1.4-1.6,2.5-2.8,3.4c-0.4,0.3-0.6,0.9-0.2,1.3c0.2,0.3,0.5,0.4,0.8,0.4
				c0.2,0,0.4-0.1,0.5-0.2c1.1-0.8,2-1.7,2.8-2.8c0.2,0.8,0.4,1.7,0.4,2.7c0,0.5,0.4,1,1,1c0,0,0,0,0,0c0.5,0,1-0.4,1-1
				c0-2.6-0.8-5-2.3-6.7c-1.7-2-4.4-3-6.7-2.5c-0.4,0.1-0.9,0.2-1.3,0.4c-0.5,0.1-0.9,0.3-1.3,0.3c-0.8,0.1-1.7-0.2-2.4-0.8
				c-0.7-0.6-1.2-1.4-1.2-2.2c-0.1-1.1,0.4-2.2,0.9-3.3c0.1-0.3,0.3-0.7,0.4-1c0.9-2.4,0.7-4.4-0.5-5.7c-0.4-0.4-1-0.4-1.4-0.1
				c-0.4,0.4-0.4,1-0.1,1.4c1,1.1,0.4,3,0.1,3.7c-0.1,0.3-0.3,0.6-0.4,1c-0.6,1.3-1.1,2.7-1,4.2C51.3,79.1,52,80.4,53.1,81.4z"/>
			<path id="XMLID_186_" style="fill:#FFFFFF;stroke:#FFFFFF;stroke-width:3;stroke-miterlimit:10;" d="M78.6,99.6
				c0.1,0.1,0.3,0.1,0.4,0.1c0.4,0,0.7-0.2,0.9-0.5c0.5-0.9,1-1.6,1.7-2c0.3-0.2,0.6-0.3,1-0.4c0.2,2.7,1.7,5.7,2.8,7
				c0.2,0.2,0.5,0.3,0.7,0.3c0.2,0,0.5-0.1,0.6-0.2c0.4-0.4,0.4-1,0.1-1.4c-1.1-1.2-2.5-4.2-2.4-6.5c0.1-0.1,0.2-0.1,0.3-0.2
				c1.5-1,2-2.7,2.4-3.9c0.1-0.5-0.2-1-0.7-1.2c-0.5-0.1-1,0.2-1.2,0.7c-0.4,1.4-0.9,2.3-1.6,2.8c-0.4,0.3-0.9,0.4-1.5,0.6
				c-0.6,0.2-1.1,0.4-1.7,0.7c-1,0.6-1.8,1.5-2.5,2.8C78,98.8,78.2,99.4,78.6,99.6z"/>
			<path id="XMLID_185_" style="fill:#FFFFFF;stroke:#FFFFFF;stroke-width:3;stroke-miterlimit:10;" d="M45.9,102.4
				c-0.1-0.5-0.4-0.9-0.7-1.3c-0.1-0.1-0.1-0.2-0.2-0.3c-0.6-0.9-0.7-2-0.7-2.7c0-0.7,0.1-1.3,0.3-2c0.5,0.1,1,0.2,1.5,0.2
				c0.7,0,1.5-0.1,2.1-0.4c0.5-0.2,0.7-0.8,0.5-1.3s-0.8-0.7-1.3-0.5c-0.9,0.4-1.9,0.4-2.8,0c0,0,0,0,0,0c-0.1-0.2-0.3-0.3-0.5-0.3
				c0,0,0,0-0.1,0c-0.6-0.4-1-1-1.3-1.7c-0.2-0.5-0.7-0.8-1.2-0.6c-0.5,0.2-0.8,0.7-0.6,1.2c0.3,1,1,1.9,1.8,2.6
				C42.6,96,42.4,97,42.4,98c0,1.5,0.3,2.8,1,3.9c0.1,0.1,0.2,0.2,0.3,0.4c0.2,0.2,0.3,0.5,0.4,0.7c0.1,0.4,0.5,0.7,0.9,0.7
				c0.1,0,0.2,0,0.2,0C45.7,103.5,46,102.9,45.9,102.4z"/>
			<path id="XMLID_184_" style="fill:#FFFFFF;stroke:#FFFFFF;stroke-width:3;stroke-miterlimit:10;" d="M47.2,120.5
				c0.2,0,0.4-0.1,0.6-0.2c0.4-0.3,0.5-0.9,0.2-1.4c-0.9-1.1-1-2.9-0.9-4.7c0-0.7,0-1.4,0.3-1.9c0.1-0.3,0.4-0.6,0.6-1
				c0.1-0.2,0.2-0.3,0.3-0.5c1.2-1.8,1.7-4,1.3-6.2c-0.1-0.5-0.6-0.9-1.1-0.8c-0.5,0.1-0.9,0.6-0.8,1.1c0.3,1.6-0.1,3.4-1,4.7
				c-0.1,0.1-0.2,0.3-0.3,0.4c-0.3,0.4-0.6,0.8-0.8,1.3c-0.4,0.9-0.4,1.9-0.4,2.6c0,2.2,0,4.3,1.4,5.9
				C46.6,120.3,46.9,120.5,47.2,120.5z"/>
			<path id="XMLID_183_" style="fill:#FFFFFF;stroke:#FFFFFF;stroke-width:3;stroke-miterlimit:10;" d="M58.3,134.8
				c0.1,0.2,0.2,0.3,0.4,0.5c1.2,1.6,4,3.9,6.7,4c0,0,0,0,0,0c0.2,2,1.1,3.7,2,5.2c0.2,0.3,0.5,0.5,0.8,0.5c0.2,0,0.3,0,0.5-0.1
				c0.5-0.3,0.6-0.9,0.3-1.3c-0.8-1.3-1.6-2.8-1.7-4.4c-0.2-1.6,0.3-3.1,1.2-3.9c0.4-0.4,0.4-1,0.1-1.4s-1-0.4-1.4-0.1
				c-1,0.9-1.6,2.2-1.9,3.6c-1.7-0.1-4-1.7-5.2-3.2c-0.1-0.1-0.2-0.3-0.3-0.4c-0.9-1.1-1.9-2.5-3.7-2.7c-0.5,0-1,0-1.5,0.1
				c-0.3,0.1-0.7,0.1-0.9,0.1c-0.1-0.1-0.3-0.1-0.4-0.1c-0.2-0.2-0.3-0.5-0.5-0.9c-0.2-0.5-0.4-1-0.8-1.4c0-0.1-0.1-0.1-0.1-0.1
				c0-0.1,0-0.2-0.1-0.2c-0.7-1.2-0.8-2.7-0.4-4.1c0.4-1.3,1.2-2.5,2.4-3.2c0.3,0,0.7-0.1,0.9-0.4c0.3-0.4,0.2-1-0.3-1.3
				c-0.2-0.2-0.8-0.4-1.5,0c-1.6,1-2.9,2.6-3.4,4.4c-0.3,1.2-0.4,2.5-0.1,3.7c-0.7-0.2-1.3-0.4-1.6-0.8c-0.3-0.4-0.9-0.5-1.3-0.2
				s-0.5,0.9-0.2,1.3c0.7,1,1.8,1.3,2.7,1.5c0.7,0.2,1.3,0.4,1.6,0.7c0.2,0.2,0.3,0.5,0.5,0.9c0.2,0.4,0.4,1,0.8,1.4
				c-1.3,2.2-1.7,4.9-1.1,7.4c0.1,0.4,0.5,0.7,0.9,0.7c0.1,0,0.2,0,0.2,0c0.5-0.1,0.8-0.7,0.7-1.2c-0.5-2.1-0.1-4.3,1-6.1
				c0.5,0,1-0.1,1.4-0.1c0.4-0.1,0.7-0.1,1-0.1C56.9,133,57.6,133.9,58.3,134.8z"/>
			<path id="XMLID_182_" style="fill:#FFFFFF;stroke:#FFFFFF;stroke-width:3;stroke-miterlimit:10;" d="M81,151
				c-0.3-0.1-0.6-0.4-1-0.6c-0.4-0.3-0.8-0.6-1.3-0.8c-1.1-0.5-2.4-0.4-3.3,0.2c-0.2,0.1-0.4,0.3-0.6,0.4c-0.2,0.2-0.4,0.4-0.6,0.4
				c-0.5,0.1-0.8,0.7-0.7,1.2c0.1,0.5,0.7,0.8,1.2,0.7c0.5-0.2,1-0.5,1.3-0.8c0.1-0.1,0.3-0.2,0.4-0.3c0.4-0.3,1-0.3,1.5-0.1
				c0.3,0.1,0.6,0.4,0.9,0.6c0.4,0.3,0.9,0.7,1.5,0.9c0.1,0,0.2,0.1,0.3,0.1c0.1,1.5,1.5,3.4,2.4,4c0.2,0.1,0.3,0.2,0.5,0.2
				c0.3,0,0.6-0.2,0.8-0.5c0.3-0.5,0.2-1-0.3-1.3c-0.6-0.3-1.4-1.7-1.5-2.4c0.7-0.2,1.3-0.5,2-1c0.4-0.3,0.8-0.6,1.1-0.9
				c0.5-0.5,1-0.9,1.5-1.2c0.5-0.3,0.6-0.9,0.3-1.3c-0.3-0.5-0.9-0.6-1.3-0.3c-0.7,0.4-1.3,0.9-1.8,1.4c-0.3,0.3-0.6,0.6-1,0.8
				C82.9,150.7,81.9,151.4,81,151z"/>
			<path id="XMLID_181_" style="fill:#FFFFFF;stroke:#FFFFFF;stroke-width:3;stroke-miterlimit:10;" d="M82.5,126.4
				c-0.7-0.7-1.4-1.5-2.1-2.2c-1-1.2-1.7-2.7-2.2-4.2c-0.1-0.3-0.2-0.7-0.3-1.1c0-0.1,0-0.1,0-0.2c0.1,0,0.2,0,0.3,0
				c1.4,0,2.9-0.5,3.9-1.5c0.4-0.4,0.4-1,0-1.4c-0.4-0.4-1-0.4-1.4,0c-0.9,0.9-2.3,1.2-3.5,0.9c-0.2-0.4-0.3-0.7-0.6-1.1
				c-1.5-2.3-4.1-3-6.8-3.7l-7.2-1.7c-1.3-0.3-2.6-0.6-3.9-1.1c-0.7-2.1-1.1-4.3-1.2-6.5c0-0.5-0.5-0.9-1-0.9c-0.5,0-0.9,0.5-0.9,1
				c0.1,1.9,0.4,3.8,0.9,5.7c-0.1,0-0.3,0-0.4-0.1c-0.4,0-0.7,0-1.1,0c-0.3,0-0.5,0-0.8,0c-0.4,0-0.7-0.2-0.8-0.3
				c-0.3-0.4-0.9-0.6-1.3-0.3c-0.4,0.3-0.6,0.9-0.3,1.3c0.5,0.7,1.3,1.1,2.3,1.2c0.3,0,0.6,0,1,0c0.3,0,0.6,0,0.8,0
				c0.5,0.1,1.1,0.3,1.7,0.5c0.1,0.1,0.3,0.1,0.4,0.2c1.4,0.5,2.8,0.8,4.1,1.1l5.2,1.2c-1,1.7-1.9,3.4-2.5,5.4
				c-0.7,2.6-0.5,5,0.6,6.9c0.5,0.8,1.1,1.5,1.6,2.2c0.3,0.4,0.7,0.8,1,1.2c0.2,0.3,0.5,0.7,0.7,1.1c0.5,0.7,0.9,1.5,1.6,2.1
				c1.2,1.2,2.8,1.8,4.3,2.4c1.3,0.5,2.5,0.9,3.4,1.7c0.9,0.8,1.6,1.9,1.8,3.1c0.1,0.5,0.5,0.8,1,0.8c0,0,0.1,0,0.1,0
				c0.5-0.1,0.9-0.6,0.8-1.1c-0.2-1.7-1.1-3.3-2.4-4.3c-1.2-1-2.6-1.5-3.9-2c-1.4-0.5-2.7-1-3.6-1.9c-0.5-0.5-0.9-1.1-1.3-1.8
				c-0.1-0.1-0.1-0.2-0.2-0.3c0.7-0.8,1.3-1.7,1.9-2.5c0.3-0.4,0.2-1-0.3-1.3c-0.4-0.3-1-0.2-1.3,0.3c-0.5,0.7-1,1.4-1.5,2
				c-0.1-0.2-0.3-0.4-0.4-0.5c-0.5-0.6-1-1.2-1.4-1.9c-1.1-2-0.7-4.3-0.4-5.5c0.5-1.9,1.6-3.7,2.6-5.4l0.1,0
				c2.3,0.5,4.5,1.2,5.6,2.8c0.5,0.8,0.7,1.7,0.9,2.7c0.1,0.4,0.2,0.8,0.3,1.1c0.5,1.8,1.4,3.5,2.5,4.9c0.7,0.9,1.4,1.6,2.2,2.4
				c1.4,1.5,2.8,2.8,3.4,4.6c0.1,0.4,0.5,0.7,0.9,0.7c0.1,0,0.2,0,0.3,0c0.5-0.2,0.8-0.7,0.6-1.2C85.6,129.6,84,128,82.5,126.4z"/>
			<path id="XMLID_180_" style="fill:#FFFFFF;stroke:#FFFFFF;stroke-width:3;stroke-miterlimit:10;" d="M78.8,159
				c-2.1,0.6-4.7,0-6.2-1.7c-0.4-0.5-0.8-1.1-1.2-1.7c-0.2-0.4-0.5-0.7-0.8-1.1c-1-1.4-2.1-2.2-3.3-2.5c0,0-0.1,0-0.1,0
				c-0.5-1.1-0.7-2.4-0.7-3.6c0-0.5-0.4-1-0.9-1c-0.5,0-1,0.4-1,0.9c0,1.2,0.1,2.4,0.5,3.6c-0.6,0-1.2,0-1.6-0.1
				c-0.6-0.2-1.2-0.8-1.7-1.4c-2.1-2.3-3.9-4.4-4.1-7c0-0.5-0.5-0.9-1-0.9c-0.5,0-0.9,0.5-0.9,1c0.3,3.4,2.8,6.1,4.6,8.1
				c0.6,0.7,1.4,1.5,2.4,1.9c0.8,0.3,1.7,0.3,2.5,0.3c0.6,0,1.1,0,1.6,0.1c0.7,0.2,1.5,0.8,2.2,1.7c0.2,0.3,0.5,0.7,0.7,1
				c0.4,0.6,0.9,1.3,1.4,1.9c1.5,1.6,3.7,2.6,5.9,2.6c0.8,0,1.5-0.1,2.2-0.3c0.5-0.2,0.8-0.7,0.6-1.2
				C79.9,159.1,79.3,158.8,78.8,159z"/>
			<path id="XMLID_179_" style="fill:#FFFFFF;stroke:#FFFFFF;stroke-width:3;stroke-miterlimit:10;" d="M62.3,44.8
				c-3.1,0.7-5.5,3.5-5.8,6.6c0,0.1,0,0.2,0,0.4c0,0.3,0,0.5-0.1,0.8c-0.1,0.2-0.2,0.3-0.2,0.3c-0.5,0.1-0.8,0.7-0.7,1.2
				c0.1,0.4,0.5,0.7,0.9,0.7c0.1,0,0.2,0,0.3,0c0.7-0.2,1.2-0.8,1.5-1.6c0.1-0.4,0.2-0.8,0.2-1.2c0-0.1,0-0.2,0-0.3
				c0.2-2.3,2.1-4.4,4.3-4.9c0.5-0.1,0.8-0.6,0.7-1.2C63.3,45,62.8,44.7,62.3,44.8z"/>
			<path id="XMLID_178_" style="fill:#FFFFFF;stroke:#FFFFFF;stroke-width:3;stroke-miterlimit:10;" d="M75.8,37.1
				c-1.5-0.1-3,0.5-3.9,1.6c-0.7,0.9-1.1,1.9-1.4,2.9c-0.1,0.3-0.2,0.6-0.3,0.9c-0.2,0.4-0.7,1.9-1.8,2c-0.5,0.1-0.9,0.6-0.8,1.1
				c0.1,0.5,0.5,0.8,1,0.8c0,0,0.1,0,0.1,0c1.4-0.2,2.6-1.4,3.3-3.3c0.1-0.3,0.2-0.7,0.3-1c0.3-0.9,0.5-1.7,1-2.3
				c0.5-0.7,1.4-1,2.3-0.9c0.5,0,1-0.3,1.1-0.9C76.7,37.6,76.3,37.1,75.8,37.1z"/>
			<path id="XMLID_174_" style="fill:#FFFFFF;stroke:#FFFFFF;stroke-width:3;stroke-miterlimit:10;" d="M93.9,120.2
				c0.2-1.3,0.4-2.9,0.1-4.6c-0.3-1.4-0.9-2.7-1.9-3.6c0.2-0.1,0.3-0.3,0.5-0.4c0.7-0.8,0.9-1.8,1.1-2.8c0.8-5.2,0.3-10.4-1.7-15.3
				c-0.4-1.1-0.9-2.1-1.4-3.1c-0.5-1-1-2.1-1.4-3.2c1.1-0.4,2.1-1.4,2.7-2.8c0.9-2.1,0.9-4.3,0.8-6.4c0-0.7,0-1.5,0-2.2
				c0.1-1.2,0.2-2.5,0.4-3.7c0.3-2.2,0.6-4.5,0.3-6.9c-0.3-1.9-0.9-3.7-1.9-5.2c4.2-9.2,3.1-21.4-6.1-26.4c-2.8-1.5-6.1-1.3-9.2-1
				c-8.2,0.9-10.9,5.3-12.4,7.6c-0.3,0.4-0.6,0.9-0.7,1.1c-0.1,0-0.3,0-0.5,0c-2.4,0.1-8.6,0.4-12.2,5.4c-1.9,2.7-3.8,7-2.1,12.1
				c-1.4,0.4-2.7,1.1-3.9,1.9c-4.9,3.3-7.1,9.1-6,16c-0.6,0.2-1.2,0.5-1.7,0.9c-1.7,1.3-2.5,3.6-2.5,6.8c0,1.1,0.1,2.5,0.6,3.9
				c-3,5.7-1.9,14.1,2.5,19.8c-0.1,0.1-0.1,0.2-0.1,0.4c-0.8,4.8-0.3,9.8,1.5,14.3c0.4,1,0.8,1.9,1.3,2.7c-0.6,5,0.1,10.1,2.1,14.8
				c0.6,1.4,1.4,3.1,2.9,4.4c1.2,1,2.7,1.4,4,1.3c-0.1,2.4,0.7,4.8,2.1,6.8c1.6,2.2,4,3.8,6.7,4.3c1.4,1.9,3.2,3.6,5.2,4.9
				c2.5,1.6,5.3,2.7,8,3.6c2.7,0.9,5.6,1.8,8.6,1.8c1.4,0,2.9-0.2,4.3-0.8c1.9-0.7,3.7-2.1,5.5-4.2c1.6-1.8,4-5.4,2.8-9
				c0-0.1,0.1-0.3,0.1-0.4c0.5-1.5,0.5-3.1,0.5-4.5c0-0.9,0-2-0.2-3.1c-0.3-1.7-0.9-3.3-1.8-4.7c0.1-0.2,0.1-0.4,0-0.5
				c0.9-1.5,1.2-3.2,1.4-4.6c0.7-3.6,1.1-7.1-0.2-10.3c0.1-0.2,0.2-0.4,0.4-0.5C93.2,123.2,93.6,121.5,93.9,120.2z M45.4,62.3
				c4-2.7,9.3-3,12.7-0.8c0.2,0.1,0.5,0.7,0.7,1.4c0.1,0.6,0.3,2.3-0.8,3.9c-0.3,0.4-0.2,1,0.2,1.3c0.4,0.3,1,0.2,1.3-0.2
				c1.1-1.6,1.5-3.5,1.1-5.4c-0.1-0.6-0.3-1.2-0.6-1.6c0-0.1,0-0.2-0.1-0.2c-0.8-1.5-0.1-3.4,0.9-4.5c1.2-1.4,3-2.3,4.8-3.1l2.9-1.4
				c0.5-0.3,1.1-0.5,1.6-0.6c0.5-0.1,1.1,0.1,1.6,0.5c0.5,0.4,0.8,0.9,0.8,1.4c0.1,0.9-0.4,1.9-0.9,2.9c-0.3,0.6-0.7,1.3-0.9,2
				c-0.7,2.3-0.2,4.8,1.4,6.6c-2.5,1.5-4.5,4.9-3.9,8.2c0.4,2.1,1.7,4.2,3.4,5.3c0.1,0.1,0.3,0.2,0.4,0.2c-0.9,1.1-1.4,2.5-1.5,4
				c-0.1,1.9,0.1,4.4,1.8,6c0.2,0.2,0.4,0.3,0.6,0.5c0.1,0.2,0.2,0.4,0.3,0.6c0.1,0.2,0.2,0.4,0.3,0.5c0.6,1.1,0.5,2.6,0.5,3.9
				c0,0.5,0.4,1,0.9,1c0,0,0,0,0,0c0.5,0,1-0.4,1-0.9c0-1.1,0-2.5-0.3-3.8c0.5,0.1,1,0.2,1.5,0.2c1.6,0,2.9-0.5,3.6-1
				c0.4-0.3,0.5-0.9,0.2-1.3c-0.3-0.4-0.9-0.5-1.3-0.2c-0.5,0.4-2.9,1.3-5.3-0.1c-0.1-0.2-0.3-0.3-0.5-0.4c-0.1-0.1-0.2-0.2-0.3-0.3
				c-1.2-1-1.2-3.2-1.2-4.4c0.1-1.6,0.9-3.1,2.1-4c0.4-0.3,0.5-0.8,0.3-1.2c-0.2-0.4-0.7-0.6-1.1-0.5c-0.2,0-0.6,0-1.1-0.3
				c-1-0.6-2.2-2.1-2.6-4c-0.5-2.7,1.6-5.7,3.8-6.6c0.5-0.2,0.7-0.8,0.5-1.3c-0.1-0.2-0.2-0.3-0.3-0.4c0-0.2-0.1-0.4-0.3-0.6
				c-1.3-1.2-1.8-3.3-1.3-5c0.2-0.6,0.5-1.1,0.8-1.7c0.5-1,1.1-2.2,1.1-3.5c0,0,0,0,0.1,0c1.4,0,2.9-0.8,3.7-2.1
				c0.8-1.4,1-3.2,0.4-4.9c-0.2-0.5-0.7-0.8-1.2-0.6c-0.5,0.2-0.8,0.7-0.6,1.2c0.4,1.2,0.3,2.4-0.2,3.3c-0.5,0.9-1.6,1.4-2.5,1.1
				c-0.1,0-0.1,0-0.2,0c-0.3-0.4-0.6-0.8-1-1.1c-0.9-0.7-2-1-3-0.9c-0.8,0.1-1.6,0.5-2.2,0.8l-2.9,1.4c-1.8,0.9-3.9,1.8-5.4,3.5
				c-1,1.1-1.7,2.7-1.8,4.3c-2.3-1-5-1.2-7.7-0.8c-1.2-3.6-0.6-7.2,1.8-10.6c3-4.2,8.6-4.5,10.7-4.6c0.5,0,0.8,0,1-0.1
				c0.8-0.2,1.2-0.9,1.8-1.9c1.4-2.2,3.6-5.9,10.9-6.7c2.9-0.3,5.8-0.5,8.1,0.7c7.9,4.3,9.1,14.7,5.7,23c-0.2-0.2-0.4-0.4-0.6-0.6
				c-0.4-0.4-1-0.4-1.4,0c-0.4,0.4-0.4,1,0,1.4c0.4,0.4,0.8,0.9,1.2,1.3c0.1,0.2,0.2,0.4,0.4,0.5c0.9,1.4,1.5,2.9,1.7,4.6
				c0.3,2.1,0,4.1-0.3,6.3c-0.2,1.3-0.4,2.6-0.4,3.9c0,0.8,0,1.6,0,2.3c0,2,0,4-0.7,5.7c-0.3,0.8-1,1.7-1.8,1.8
				c-0.8,0-1.6-0.7-2.5-2.4c-0.3-0.5-0.8-0.6-1.3-0.4C84,83,83.8,83.6,84.1,84c0.4,0.8,1.4,2.6,3.1,3.2c0.5,1.4,1.1,2.7,1.8,4.1
				c0.5,1,0.9,2,1.4,3c1.8,4.5,2.4,9.5,1.6,14.3c-0.1,0.6-0.2,1.4-0.6,1.8c-0.5,0.6-1.5,0.8-3,0.6c-5.6-0.7-11-4.1-16.5-10.6
				l-0.4-0.5c-1.1-1.3-2.3-2.7-3.8-3.7c-2.5-1.7-5.6-2-8-2.1l-0.4,0c-1.2,0-2.3-0.1-3.2-0.5c-1.9-0.8-2.9-2.8-3.5-4.4
				c-0.3-0.8-0.5-1.5-0.7-2.4c-0.4-1.3-0.8-2.7-1.4-4c-1.3-2.6-3.6-4.8-6.3-5.9c-1.1-0.5-2.4-0.8-3.8-0.7
				C38.9,68.1,42.8,64,45.4,62.3z M91.9,119.9c-0.2,1.1-0.5,2.6-1.3,3.8c-0.7,1.1-1.7,1.9-2.7,2.2c-0.5,0.1-0.8,0.6-0.7,1.2
				c0.1,0.4,0.5,0.7,0.9,0.7c0.1,0,0.1,0,0.2,0c0.7-0.2,1.4-0.5,2.1-1c0.7,2.5,0.3,5.4-0.2,8.4c-0.3,1.5-0.6,3.2-1.5,4.4
				c-0.7,1-2.1,1.8-3.3,1.4c-0.5-0.2-1.1,0.1-1.2,0.6c-0.2,0.5,0.1,1.1,0.6,1.2c0.4,0.2,0.9,0.2,1.4,0.2c1.1,0,2.2-0.5,3.1-1.1
				c0.7,1.1,1.2,2.4,1.4,3.8c0.1,0.9,0.2,1.9,0.1,2.8c0,1.3,0,2.7-0.4,3.9c-0.4,1.2-1.1,2.1-1.9,2.6c-0.3-0.1-0.6,0-0.9,0.1
				c-0.4,0.3-0.5,0.9-0.2,1.3c0.2,0.3,0.6,0.5,1,0.5c0.2,0,0.5-0.1,0.8-0.2c0.5-0.2,0.9-0.5,1.3-0.9c-0.2,2.1-1.6,4.1-2.6,5.2
				c-1.6,1.8-3.2,3-4.8,3.7c-3.6,1.4-7.8,0.2-11.5-1.1c-2.6-0.9-5.3-1.9-7.6-3.4c-1.8-1.2-3.4-2.7-4.7-4.4c-0.1-0.2-0.2-0.4-0.4-0.6
				c-0.8-1.2-1.5-2.5-2-3.9c-0.2-0.5-0.7-0.8-1.2-0.6c-0.5,0.2-0.8,0.7-0.6,1.2c0.3,0.8,0.6,1.6,1,2.3c-1.4-0.7-2.6-1.7-3.5-2.9
				c-1.4-1.9-2-4.4-1.6-6.8c0.1-0.4-0.1-0.7-0.4-0.9c-0.3-0.2-0.7-0.2-1-0.1c-1.2,0.6-2.6,0.1-3.5-0.6c-1.2-0.9-1.9-2.4-2.4-3.6
				c-1.6-3.7-2.3-7.8-2.1-11.8c0.7,0.6,1.4,1.1,2.1,1.4c0.1,0.1,0.3,0.1,0.4,0.1c0.4,0,0.7-0.2,0.9-0.6c0.2-0.5,0-1.1-0.5-1.3
				c-1.7-0.7-3.1-2.5-4.2-5.3c-1.5-3.9-2-8-1.5-12.1c0.1,0.1,0.2,0.2,0.3,0.3c1,1,2.1,2.1,2,3.2c0,0.5,0.4,1,0.9,1c0,0,0,0,0,0
				c0.5,0,0.9-0.4,1-0.9c0.1-2-1.4-3.5-2.6-4.7c-0.1-0.1-0.2-0.2-0.3-0.3c-4.7-4.7-6.4-12.8-4.2-18.4c0.9,1,2.2,1.5,3.4,1.5
				c0.5,0,0.9-0.5,0.9-1s-0.5-0.9-1-0.9c-1.1,0.1-2.1-0.8-2.5-1.7c-0.6-1.2-0.7-2.6-0.7-3.7c0-2.5,0.6-4.3,1.8-5.3
				c1.5-1.2,3.8-0.9,5.4-0.2c2.3,0.9,4.2,2.8,5.3,5c0.6,1.1,0.9,2.4,1.3,3.7c0.2,0.8,0.5,1.7,0.8,2.5c1,2.8,2.6,4.7,4.6,5.5
				c1.3,0.5,2.6,0.6,3.9,0.6l0.4,0c2.1,0.1,4.9,0.3,7,1.7c1.3,0.8,2.3,2,3.4,3.3l0.4,0.5c5.8,6.8,11.7,10.5,17.8,11.2
				c0.4,0.1,0.8,0.1,1.2,0.1c0.4,0,0.7,0,1-0.1c0.1,0.1,0.1,0.2,0.2,0.2c0.9,0.6,1.5,1.6,1.7,2.9C92.3,117.3,92.1,118.8,91.9,119.9z
				"/>
		</g>
	</g>
	<g id="XMLID_1_">
		<g>
			<path id="XMLID_173_" style="fill:#FFFFFF;stroke:#FFFFFF;stroke-width:3;stroke-miterlimit:10;" d="M107.1,44.9
				c-0.2,0-0.5,0-0.8,0c-0.9,0.9-1.1,2.4-1,3.5c0.1,1.1,0.4,2.2,0.8,3.4c0.1,0.5,0.3,1,0.4,1.5c0.6,2.3,0.6,4.2-0.1,5.8
				c-0.2,0.4-0.5,0.6-0.9,0.6c-0.1,0-0.3,0-0.4-0.1c-0.5-0.2-0.7-0.8-0.5-1.3c0.5-1.1,0.5-2.6,0-4.5c-0.1-0.5-0.3-1-0.4-1.4
				c-0.4-1.2-0.7-2.5-0.9-3.8c-0.1-1.8,0.3-3.4,1.1-4.6c-0.2-0.2-0.5-0.5-0.7-0.8c-0.5-0.8-0.9-1.8-1.1-2.7c-0.1-0.5,0.2-1,0.8-1.1
				c0.5-0.1,1,0.2,1.1,0.8c0.1,0.7,0.4,1.4,0.8,2c0.2,0.4,0.5,0.6,0.7,0.7c0.2,0,0.3,0.1,0.4,0.1c0.2,0,0.3,0,0.5,0
				c1,0,2.1,0,2.7-0.6c0.4-0.4,1-0.4,1.4,0c0.4,0.4,0.4,1,0,1.4C110.1,44.8,108.5,44.9,107.1,44.9C107.1,44.9,107.1,44.9,107.1,44.9
				z"/>
			<path id="XMLID_172_" style="fill:#FFFFFF;stroke:#FFFFFF;stroke-width:3;stroke-miterlimit:10;" d="M124.5,75.3
				c-0.2,0-0.4,0-0.5-0.1c-0.5-0.3-0.6-0.9-0.3-1.3c0.7-1.1,0.8-2.5,0.3-3.7c-0.1-0.3-0.3-0.7-0.5-1c-0.2-0.3-0.4-0.6-0.5-1
				c-1-2.1-0.9-4.6,0.3-6.7c0.3-0.5,0.9-0.6,1.3-0.4c0.5,0.3,0.6,0.9,0.4,1.3c-0.8,1.5-0.9,3.3-0.2,4.9c0.1,0.3,0.3,0.6,0.5,0.8
				c0.2,0.4,0.5,0.8,0.7,1.3c0.7,1.8,0.6,3.9-0.5,5.5C125.1,75.2,124.8,75.3,124.5,75.3z"/>
			<path id="XMLID_171_" style="fill:#FFFFFF;stroke:#FFFFFF;stroke-width:3;stroke-miterlimit:10;" d="M107.1,74.9
				c-0.3,0.9-0.3,1.9,0.1,2.8c0.2,0.5-0.1,1.1-0.6,1.2c-0.1,0-0.2,0.1-0.3,0.1c-0.4,0-0.8-0.2-0.9-0.6c-0.5-1.3-0.5-2.7-0.1-4
				c0.1-0.5,0.3-0.9,0.5-1.3c0.1-0.3,0.3-0.6,0.4-0.8c0.8-2.2,0.2-4.9-1.4-6.6c-0.4-0.4-0.4-1,0-1.4c0.4-0.4,1-0.4,1.4,0
				c2.2,2.2,2.9,5.7,1.9,8.6c-0.1,0.3-0.3,0.7-0.4,1C107.3,74.1,107.2,74.5,107.1,74.9z"/>
			<path id="XMLID_170_" style="fill:#FFFFFF;stroke:#FFFFFF;stroke-width:3;stroke-miterlimit:10;" d="M135.8,82
				c-0.2,0.2-0.4,0.3-0.6,0.4c0.8,1.4,0.7,3.3-0.1,4.7c-0.2,0.3-0.5,0.5-0.8,0.5c-0.2,0-0.4,0-0.5-0.1c-0.5-0.3-0.6-0.9-0.3-1.3
				c0.5-0.9,0.5-2.1-0.1-2.9c-0.5,0.1-1,0.1-1.4,0c-0.6-0.1-1.1-0.3-1.6-0.4c-0.4-0.1-0.7-0.2-1-0.3c-1.7-0.3-3.6,0.4-4.9,1.8
				c-0.2,0.2-0.3,0.4-0.4,0.5c0,0,0,0,0,0.1c0.6,1.4,1.6,2.5,2.8,3.4c0.4,0.3,0.6,0.9,0.2,1.3c-0.2,0.3-0.5,0.4-0.8,0.4
				c-0.2,0-0.4-0.1-0.5-0.2c-1.1-0.8-2-1.7-2.8-2.8c-0.2,0.8-0.4,1.7-0.4,2.7c0,0.5-0.4,1-1,1c0,0,0,0,0,0c-0.5,0-1-0.4-1-1
				c0-2.6,0.8-5,2.3-6.7c1.7-2,4.4-3,6.7-2.5c0.4,0.1,0.9,0.2,1.3,0.4c0.5,0.1,0.9,0.3,1.3,0.3c0.8,0.1,1.7-0.2,2.4-0.8
				c0.7-0.6,1.2-1.4,1.2-2.2c0.1-1.1-0.4-2.2-0.9-3.3c-0.1-0.3-0.3-0.7-0.4-1c-0.9-2.4-0.7-4.4,0.5-5.7c0.4-0.4,1-0.4,1.4-0.1
				c0.4,0.4,0.4,1,0.1,1.4c-1,1-0.4,3-0.1,3.7c0.1,0.3,0.3,0.6,0.4,1c0.6,1.3,1.1,2.7,1,4.2C137.7,79.7,137,81,135.8,82z"/>
			<path id="XMLID_169_" style="fill:#FFFFFF;stroke:#FFFFFF;stroke-width:3;stroke-miterlimit:10;" d="M110.4,100.2
				c-0.1,0.1-0.3,0.1-0.4,0.1c-0.4,0-0.7-0.2-0.9-0.5c-0.5-0.9-1-1.6-1.7-2c-0.3-0.2-0.6-0.3-1-0.4c-0.2,2.7-1.7,5.7-2.8,7
				c-0.2,0.2-0.5,0.3-0.7,0.3c-0.2,0-0.5-0.1-0.6-0.2c-0.4-0.4-0.4-1-0.1-1.4c1.1-1.2,2.5-4.3,2.4-6.5c-0.1-0.1-0.2-0.1-0.3-0.2
				c-1.5-1-2-2.7-2.4-3.9c-0.1-0.5,0.2-1,0.7-1.2c0.5-0.1,1,0.2,1.2,0.7c0.4,1.4,0.9,2.3,1.6,2.8c0.4,0.3,0.9,0.4,1.5,0.6
				c0.5,0.2,1.1,0.4,1.7,0.7c1,0.6,1.8,1.5,2.5,2.8C111,99.4,110.8,100,110.4,100.2z"/>
			<path id="XMLID_168_" style="fill:#FFFFFF;stroke:#FFFFFF;stroke-width:3;stroke-miterlimit:10;" d="M143.1,103
				c0.1-0.5,0.4-0.9,0.7-1.3c0.1-0.1,0.1-0.2,0.2-0.3c0.6-0.9,0.7-2,0.7-2.7c0-0.7-0.1-1.3-0.3-2c-0.5,0.1-1,0.2-1.5,0.2
				c-0.7,0-1.5-0.1-2.1-0.4c-0.5-0.2-0.7-0.8-0.5-1.3c0.2-0.5,0.8-0.7,1.3-0.5c0.9,0.4,1.9,0.4,2.8,0c0,0,0,0,0,0
				c0.1-0.2,0.3-0.3,0.5-0.3c0,0,0,0,0.1,0c0.6-0.4,1-1,1.3-1.7c0.2-0.5,0.7-0.8,1.2-0.6c0.5,0.2,0.8,0.7,0.6,1.2
				c-0.3,1-1,1.9-1.8,2.6c0.2,0.9,0.4,1.9,0.4,2.9c0,1.5-0.3,2.8-1,3.9c-0.1,0.1-0.2,0.2-0.3,0.4c-0.2,0.2-0.3,0.5-0.4,0.7
				c-0.1,0.4-0.5,0.7-0.9,0.7c-0.1,0-0.2,0-0.2,0C143.3,104.1,143,103.5,143.1,103z"/>
			<path id="XMLID_167_" style="fill:#FFFFFF;stroke:#FFFFFF;stroke-width:3;stroke-miterlimit:10;" d="M141.8,121.1
				c-0.2,0-0.4-0.1-0.6-0.2c-0.4-0.3-0.5-0.9-0.2-1.4c0.9-1.1,1-2.9,0.9-4.7c0-0.7,0-1.4-0.3-1.9c-0.1-0.3-0.4-0.6-0.6-1
				c-0.1-0.2-0.2-0.3-0.3-0.5c-1.2-1.8-1.7-4-1.3-6.2c0.1-0.5,0.6-0.9,1.1-0.8c0.5,0.1,0.9,0.6,0.8,1.1c-0.3,1.6,0.1,3.4,1,4.7
				c0.1,0.1,0.2,0.3,0.3,0.4c0.3,0.4,0.6,0.8,0.8,1.3c0.4,0.9,0.4,1.9,0.4,2.6c0,2.2,0,4.3-1.4,5.9
				C142.4,121,142.1,121.1,141.8,121.1z"/>
			<path id="XMLID_166_" style="fill:#FFFFFF;stroke:#FFFFFF;stroke-width:3;stroke-miterlimit:10;" d="M130.7,135.4
				c-0.1,0.2-0.2,0.3-0.4,0.5c-1.2,1.6-4,3.9-6.7,4c0,0,0,0,0,0c-0.2,2-1.1,3.7-2,5.2c-0.2,0.3-0.5,0.5-0.8,0.5
				c-0.2,0-0.3,0-0.5-0.1c-0.5-0.3-0.6-0.9-0.3-1.3c0.8-1.3,1.6-2.8,1.7-4.4c0.2-1.6-0.3-3.1-1.2-3.9c-0.4-0.4-0.4-1-0.1-1.4
				c0.4-0.4,1-0.4,1.4-0.1c1,0.9,1.6,2.2,1.9,3.6c1.7-0.1,4-1.7,5.2-3.2c0.1-0.1,0.2-0.3,0.3-0.4c0.9-1.1,1.9-2.5,3.7-2.7
				c0.5,0,1,0,1.5,0.1c0.3,0.1,0.7,0.1,0.9,0.1c0.1-0.1,0.3-0.1,0.4-0.1c0.2-0.2,0.3-0.5,0.5-0.9c0.2-0.5,0.4-1,0.8-1.4
				c0-0.1,0.1-0.1,0.1-0.1c0-0.1,0-0.2,0.1-0.2c0.7-1.2,0.8-2.7,0.4-4.1c-0.4-1.3-1.3-2.5-2.4-3.2c-0.3,0-0.7-0.1-0.9-0.4
				c-0.3-0.4-0.2-1,0.3-1.3c0.2-0.2,0.8-0.4,1.5,0c1.6,1,2.9,2.6,3.4,4.4c0.3,1.2,0.4,2.5,0.1,3.7c0.7-0.2,1.3-0.4,1.6-0.8
				c0.3-0.4,0.9-0.5,1.3-0.2c0.4,0.3,0.5,0.9,0.2,1.3c-0.7,1-1.8,1.3-2.7,1.5c-0.7,0.2-1.3,0.4-1.6,0.7c-0.2,0.2-0.3,0.5-0.5,0.9
				c-0.2,0.4-0.4,1-0.8,1.4c1.3,2.2,1.7,4.9,1.1,7.4c-0.1,0.4-0.5,0.7-0.9,0.7c-0.1,0-0.2,0-0.2,0c-0.5-0.1-0.8-0.6-0.7-1.2
				c0.5-2.1,0.1-4.3-1-6.1c-0.5,0-1-0.1-1.4-0.1c-0.4-0.1-0.7-0.1-1-0.1C132.1,133.6,131.4,134.5,130.7,135.4z"/>
			<path id="XMLID_165_" style="fill:#FFFFFF;stroke:#FFFFFF;stroke-width:3;stroke-miterlimit:10;" d="M108,151.6
				c0.3-0.1,0.6-0.4,1-0.6c0.4-0.3,0.8-0.6,1.3-0.8c1.1-0.5,2.4-0.4,3.3,0.2c0.2,0.1,0.4,0.3,0.6,0.4c0.2,0.2,0.4,0.4,0.6,0.4
				c0.5,0.1,0.8,0.7,0.7,1.2c-0.1,0.5-0.7,0.8-1.2,0.7c-0.5-0.2-1-0.5-1.3-0.8c-0.1-0.1-0.3-0.2-0.4-0.3c-0.4-0.3-1-0.3-1.5-0.1
				c-0.3,0.1-0.6,0.4-0.9,0.6c-0.4,0.3-0.9,0.7-1.5,0.9c-0.1,0-0.2,0.1-0.3,0.1c-0.1,1.5-1.5,3.4-2.4,4c-0.2,0.1-0.3,0.1-0.5,0.1
				c-0.3,0-0.6-0.2-0.8-0.5c-0.3-0.5-0.2-1,0.3-1.3c0.6-0.3,1.4-1.7,1.5-2.4c-0.7-0.2-1.3-0.5-2-1c-0.4-0.3-0.8-0.6-1.1-0.9
				c-0.5-0.5-1-0.9-1.5-1.2c-0.5-0.3-0.6-0.9-0.3-1.3c0.3-0.5,0.9-0.6,1.3-0.3c0.7,0.4,1.3,0.9,1.8,1.4c0.3,0.3,0.6,0.6,1,0.8
				C106.1,151.3,107.1,152,108,151.6z"/>
			<path id="XMLID_164_" style="fill:#FFFFFF;stroke:#FFFFFF;stroke-width:3;stroke-miterlimit:10;" d="M106.5,127
				c0.7-0.7,1.4-1.5,2.1-2.2c1-1.2,1.7-2.7,2.2-4.2c0.1-0.3,0.2-0.7,0.3-1.1c0-0.1,0-0.1,0-0.2c-0.1,0-0.2,0-0.3,0
				c-1.4,0-2.9-0.5-3.9-1.5c-0.4-0.4-0.4-1,0-1.4c0.4-0.4,1-0.4,1.4,0c0.9,0.9,2.3,1.2,3.5,0.9c0.2-0.4,0.3-0.7,0.6-1.1
				c1.5-2.3,4.1-3,6.8-3.7l7.2-1.7c1.3-0.3,2.6-0.6,3.9-1.1c0.7-2.1,1.1-4.3,1.2-6.5c0-0.5,0.5-0.9,1-0.9c0.5,0,0.9,0.5,0.9,1
				c-0.1,1.9-0.4,3.8-0.9,5.7c0.1,0,0.3,0,0.4-0.1c0.4,0,0.7,0,1.1,0c0.3,0,0.5,0,0.8,0c0.4,0,0.7-0.2,0.8-0.3
				c0.3-0.4,0.9-0.6,1.3-0.3c0.4,0.3,0.6,0.9,0.3,1.3c-0.5,0.7-1.3,1.1-2.3,1.2c-0.3,0-0.7,0-1,0c-0.3,0-0.6,0-0.8,0
				c-0.5,0.1-1.1,0.3-1.7,0.5c-0.1,0.1-0.3,0.1-0.4,0.2c-1.4,0.5-2.8,0.8-4.1,1.1l-5.2,1.2c1,1.7,1.9,3.4,2.5,5.4
				c0.7,2.6,0.5,5-0.6,6.9c-0.5,0.8-1.1,1.5-1.6,2.2c-0.3,0.4-0.7,0.8-1,1.2c-0.3,0.3-0.5,0.7-0.7,1.1c-0.5,0.7-0.9,1.5-1.6,2.1
				c-1.2,1.2-2.8,1.8-4.3,2.4c-1.3,0.5-2.5,0.9-3.4,1.7c-0.9,0.8-1.6,1.9-1.8,3.1c-0.1,0.5-0.5,0.8-1,0.8c0,0-0.1,0-0.1,0
				c-0.5-0.1-0.9-0.6-0.8-1.1c0.2-1.7,1.1-3.3,2.4-4.3c1.2-1,2.6-1.5,3.9-2c1.4-0.5,2.7-1,3.6-1.9c0.5-0.5,0.9-1.1,1.3-1.8
				c0.1-0.1,0.1-0.2,0.2-0.3c-0.7-0.8-1.3-1.7-1.9-2.5c-0.3-0.4-0.2-1,0.3-1.3c0.4-0.3,1-0.2,1.3,0.3c0.5,0.7,1,1.4,1.5,2
				c0.2-0.2,0.3-0.4,0.4-0.5c0.5-0.6,1-1.2,1.4-1.9c1.1-2,0.7-4.3,0.4-5.5c-0.5-1.9-1.6-3.7-2.6-5.4l-0.1,0
				c-2.3,0.5-4.5,1.2-5.6,2.8c-0.5,0.8-0.7,1.7-0.9,2.7c-0.1,0.4-0.2,0.8-0.3,1.1c-0.5,1.8-1.4,3.5-2.5,4.9
				c-0.7,0.9-1.4,1.6-2.2,2.4c-1.4,1.5-2.8,2.8-3.4,4.6c-0.1,0.4-0.5,0.7-0.9,0.7c-0.1,0-0.2,0-0.3,0c-0.5-0.2-0.8-0.7-0.6-1.2
				C103.4,130.2,105,128.6,106.5,127z"/>
			<path id="XMLID_163_" style="fill:#FFFFFF;stroke:#FFFFFF;stroke-width:3;stroke-miterlimit:10;" d="M110.2,159.6
				c2.1,0.6,4.7,0,6.2-1.7c0.4-0.5,0.8-1.1,1.2-1.7c0.2-0.4,0.5-0.7,0.8-1.1c1-1.4,2.1-2.2,3.3-2.5c0,0,0.1,0,0.1,0
				c0.5-1.1,0.7-2.4,0.7-3.6c0-0.5,0.4-1,0.9-1c0.5,0,1,0.4,1,0.9c0,1.2-0.1,2.4-0.5,3.6c0.6,0,1.2,0,1.6-0.1
				c0.6-0.2,1.2-0.8,1.7-1.4c2.1-2.3,3.9-4.4,4.1-7c0-0.5,0.5-0.9,1-0.9c0.5,0,0.9,0.5,0.9,1c-0.3,3.4-2.8,6.1-4.6,8.1
				c-0.6,0.7-1.4,1.5-2.4,1.9c-0.8,0.3-1.7,0.3-2.5,0.3c-0.6,0-1.1,0-1.6,0.1c-0.7,0.2-1.5,0.8-2.2,1.7c-0.2,0.3-0.5,0.7-0.7,1
				c-0.4,0.6-0.9,1.3-1.4,1.9c-1.5,1.6-3.7,2.6-5.9,2.6c-0.8,0-1.5-0.1-2.2-0.3c-0.5-0.2-0.8-0.7-0.6-1.2
				C109.1,159.7,109.7,159.4,110.2,159.6z"/>
			<path id="XMLID_162_" style="fill:#FFFFFF;stroke:#FFFFFF;stroke-width:3;stroke-miterlimit:10;" d="M126.7,45.4
				c3.1,0.7,5.5,3.5,5.8,6.6c0,0.1,0,0.2,0,0.4c0,0.3,0,0.5,0.1,0.8c0.1,0.2,0.2,0.3,0.2,0.3c0.5,0.2,0.8,0.7,0.7,1.2
				c-0.1,0.4-0.5,0.7-0.9,0.7c-0.1,0-0.2,0-0.3,0c-0.7-0.2-1.2-0.8-1.5-1.6c-0.1-0.4-0.2-0.8-0.2-1.2c0-0.1,0-0.2,0-0.3
				c-0.2-2.3-2.1-4.4-4.3-4.9c-0.5-0.1-0.8-0.6-0.7-1.2C125.7,45.6,126.2,45.3,126.7,45.4z"/>
			<path id="XMLID_161_" style="fill:#FFFFFF;stroke:#FFFFFF;stroke-width:3;stroke-miterlimit:10;" d="M113.2,37.7
				c1.5-0.1,3,0.5,3.9,1.6c0.7,0.9,1.1,1.9,1.4,2.9c0.1,0.3,0.2,0.6,0.3,0.9c0.2,0.4,0.8,1.9,1.8,2c0.5,0.1,0.9,0.6,0.8,1.1
				c-0.1,0.5-0.5,0.8-1,0.8c0,0-0.1,0-0.1,0c-1.4-0.2-2.6-1.4-3.3-3.3c-0.1-0.3-0.2-0.7-0.3-1c-0.3-0.9-0.5-1.7-1-2.3
				c-0.5-0.7-1.4-1-2.3-0.9c-0.5,0-1-0.3-1-0.9S112.6,37.7,113.2,37.7z"/>
			<path id="XMLID_157_" style="fill:#FFFFFF;stroke:#FFFFFF;stroke-width:3;stroke-miterlimit:10;" d="M96.6,125.3
				c0.1,0.2,0.2,0.4,0.4,0.5c-1.3,3.2-0.8,6.7-0.2,10.3c0.3,1.4,0.6,3.1,1.4,4.6c0,0.2,0,0.4,0,0.5c-0.9,1.4-1.6,3-1.8,4.7
				c-0.2,1.1-0.2,2.2-0.2,3.1c0,1.5,0,3,0.5,4.5c0,0.1,0.1,0.3,0.1,0.4c-1.2,3.6,1.2,7.2,2.8,9c1.8,2.1,3.6,3.4,5.5,4.2
				c1.4,0.5,2.8,0.8,4.3,0.8c2.9,0,5.9-0.9,8.6-1.8c2.7-0.9,5.5-2,8-3.6c2-1.3,3.8-3,5.2-4.9c2.7-0.6,5.1-2.1,6.7-4.3
				c1.4-2,2.1-4.4,2.1-6.8c1.4,0.1,2.9-0.3,4-1.3c1.5-1.2,2.4-3,2.9-4.4c1.9-4.6,2.7-9.8,2.1-14.8c0.5-0.8,0.9-1.7,1.3-2.7
				c1.8-4.6,2.3-9.5,1.5-14.3c0-0.1-0.1-0.3-0.1-0.4c4.3-5.8,5.5-14.2,2.5-19.8c0.5-1.3,0.6-2.7,0.6-3.9c0-3.2-0.8-5.4-2.5-6.8
				c-0.5-0.4-1.1-0.7-1.7-0.9c1.1-6.8-1.1-12.6-6-16c-1.2-0.8-2.5-1.4-3.9-1.9c1.6-5.2-0.2-9.4-2.1-12.1c-3.6-5-9.8-5.3-12.2-5.4
				c-0.2,0-0.4,0-0.5,0c-0.2-0.2-0.5-0.7-0.7-1.1c-1.4-2.3-4.1-6.7-12.4-7.6c-3.1-0.3-6.4-0.6-9.2,1c-9.3,5-10.3,17.2-6.1,26.4
				c-1,1.6-1.7,3.4-1.9,5.2c-0.3,2.3,0,4.6,0.3,6.9c0.2,1.2,0.3,2.5,0.4,3.7c0,0.7,0,1.5,0,2.2c0,2.1,0,4.4,0.8,6.4
				c0.6,1.4,1.5,2.4,2.7,2.8c-0.4,1.1-0.9,2.1-1.4,3.2c-0.5,1-1,2-1.4,3.1c-2,4.8-2.5,10.1-1.7,15.3c0.2,1,0.4,2,1.1,2.8
				c0.1,0.2,0.3,0.3,0.5,0.4c-0.9,0.9-1.6,2.2-1.9,3.6c-0.3,1.7-0.1,3.3,0.1,4.6C95.4,122.1,95.8,123.8,96.6,125.3z M148.8,76.9
				c-1.3,0-2.7,0.3-3.8,0.7c-2.7,1.1-5,3.3-6.3,5.9c-0.6,1.3-1,2.7-1.4,4c-0.2,0.8-0.4,1.6-0.7,2.4c-0.6,1.6-1.6,3.6-3.5,4.4
				c-1,0.4-2.1,0.4-3.2,0.5l-0.4,0c-2.4,0.1-5.5,0.4-8,2.1c-1.5,1-2.7,2.3-3.8,3.7l-0.4,0.5c-5.5,6.4-10.9,9.9-16.5,10.6
				c-1.5,0.2-2.5,0-3-0.6c-0.4-0.4-0.5-1.2-0.6-1.8c-0.8-4.8-0.2-9.7,1.6-14.3c0.4-1,0.9-2,1.4-3c0.6-1.3,1.3-2.6,1.8-4.1
				c1.6-0.6,2.6-2.4,3-3.2c0.3-0.5,0.1-1.1-0.4-1.3c-0.5-0.3-1.1-0.1-1.3,0.4c-0.9,1.7-1.7,2.4-2.5,2.4c-0.8,0-1.5-0.9-1.8-1.8
				c-0.7-1.7-0.7-3.7-0.7-5.7c0-0.8,0-1.6,0-2.3c-0.1-1.3-0.2-2.6-0.4-3.9c-0.3-2.2-0.6-4.3-0.3-6.3c0.2-1.6,0.8-3.2,1.7-4.6
				c0.2-0.1,0.3-0.3,0.4-0.5c0.4-0.5,0.8-0.9,1.2-1.3c0.4-0.4,0.4-1,0-1.4c-0.4-0.4-1-0.4-1.4,0c-0.2,0.2-0.4,0.4-0.6,0.6
				c-3.4-8.3-2.3-18.7,5.7-23c2.3-1.3,5.2-1.1,8.1-0.7c7.3,0.8,9.6,4.5,10.9,6.7c0.6,1,1.1,1.7,1.8,1.9c0.2,0.1,0.5,0.1,1,0.1
				c2.1,0.1,7.7,0.3,10.7,4.6c2.4,3.4,3,6.9,1.8,10.6c-2.7-0.5-5.4-0.2-7.7,0.8c0-1.6-0.8-3.2-1.8-4.3c-1.5-1.7-3.6-2.7-5.4-3.5
				l-2.9-1.4c-0.6-0.3-1.4-0.7-2.2-0.8c-1-0.1-2.2,0.2-3,0.9c-0.4,0.3-0.7,0.7-1,1.1c-0.1,0-0.1,0-0.2,0c-0.9,0.3-2-0.2-2.5-1.1
				c-0.5-0.9-0.6-2.1-0.2-3.3c0.2-0.5-0.1-1.1-0.6-1.2c-0.5-0.2-1.1,0.1-1.2,0.6c-0.6,1.7-0.5,3.5,0.4,4.9c0.8,1.3,2.3,2.1,3.7,2.1
				c0,0,0,0,0.1,0c0,1.3,0.6,2.5,1.1,3.5c0.3,0.6,0.6,1.2,0.8,1.7c0.5,1.7,0,3.8-1.3,5c-0.2,0.2-0.3,0.4-0.3,0.6
				c-0.1,0.1-0.2,0.2-0.3,0.4c-0.2,0.5,0.1,1.1,0.5,1.3c2.1,0.8,4.2,3.9,3.8,6.6c-0.3,1.9-1.5,3.3-2.6,4c-0.5,0.3-0.9,0.4-1.1,0.3
				c-0.4-0.1-0.9,0.1-1.1,0.5c-0.2,0.4-0.1,0.9,0.3,1.2c1.2,0.9,2,2.4,2.1,4c0.1,1.2,0,3.3-1.2,4.4c-0.1,0.1-0.2,0.2-0.3,0.3
				c-0.2,0.1-0.4,0.2-0.5,0.4c-2.4,1.4-4.8,0.5-5.3,0.1c-0.4-0.3-1-0.2-1.3,0.2c-0.3,0.4-0.2,1,0.2,1.3c0.7,0.5,2,1,3.6,1
				c0.5,0,1,0,1.5-0.2c-0.4,1.3-0.4,2.7-0.3,3.8c0,0.5,0.4,0.9,1,0.9c0,0,0,0,0,0c0.5,0,1-0.5,0.9-1c0-1.3-0.1-2.7,0.5-3.9
				c0.1-0.2,0.2-0.4,0.3-0.5s0.2-0.4,0.3-0.6c0.2-0.2,0.4-0.3,0.6-0.5c1.7-1.5,2-4.1,1.8-6c-0.1-1.5-0.6-2.9-1.5-4
				c0.1-0.1,0.3-0.1,0.4-0.2c1.7-1.1,3-3.1,3.4-5.3c0.6-3.3-1.4-6.6-3.9-8.2c1.6-1.8,2.1-4.3,1.4-6.6c-0.2-0.7-0.6-1.4-0.9-2
				c-0.5-1-1-2-0.9-2.9c0.1-0.5,0.4-1.1,0.8-1.4c0.5-0.4,1.1-0.6,1.6-0.5c0.5,0.1,1.1,0.3,1.6,0.6l2.9,1.4c1.7,0.8,3.5,1.7,4.8,3.1
				c1,1.1,1.7,3,0.9,4.5c0,0.1-0.1,0.1-0.1,0.2c-0.3,0.5-0.5,1-0.6,1.6c-0.4,1.8,0.1,3.8,1.1,5.4c0.3,0.4,0.9,0.5,1.3,0.2
				c0.4-0.3,0.5-0.9,0.2-1.3c-1.1-1.6-1-3.3-0.8-3.9c0.2-0.8,0.5-1.3,0.7-1.4c3.4-2.2,8.8-1.9,12.7,0.8
				C146.2,64.6,150.1,68.7,148.8,76.9z M96.9,116.6c0.2-1.3,0.9-2.3,1.7-2.9c0.1-0.1,0.2-0.1,0.2-0.2c0.3,0,0.7,0.1,1,0.1
				c0.4,0,0.8,0,1.2-0.1c6.1-0.7,11.9-4.4,17.8-11.2l0.4-0.5c1.1-1.3,2.1-2.5,3.4-3.3c2.1-1.4,4.9-1.7,7-1.8l0.4,0
				c1.3,0,2.6-0.1,3.9-0.6c2-0.8,3.6-2.7,4.6-5.5c0.3-0.8,0.5-1.7,0.8-2.5c0.4-1.3,0.7-2.5,1.3-3.7c1.1-2.2,3-4,5.3-5
				c1.6-0.7,3.9-1,5.4,0.2c1.2,0.9,1.8,2.7,1.8,5.3c0,1.1-0.1,2.5-0.7,3.7c-0.5,0.9-1.4,1.7-2.5,1.7c-0.5,0-1,0.4-1,0.9
				c0,0.5,0.4,1,0.9,1c1.3,0.1,2.5-0.5,3.4-1.5c2.2,5.6,0.5,13.6-4.2,18.4c-0.1,0.1-0.2,0.2-0.3,0.3c-1.2,1.2-2.7,2.7-2.6,4.7
				c0,0.5,0.4,0.9,1,0.9c0,0,0,0,0,0c0.5,0,0.9-0.5,0.9-1c0-1.2,1-2.2,2-3.2c0.1-0.1,0.2-0.2,0.3-0.3c0.5,4.1,0,8.3-1.5,12.1
				c-1.1,2.7-2.5,4.5-4.2,5.3c-0.5,0.2-0.7,0.8-0.5,1.3c0.2,0.4,0.5,0.6,0.9,0.6c0.1,0,0.3,0,0.4-0.1c0.8-0.3,1.5-0.8,2.1-1.4
				c0.2,4-0.5,8.1-2.1,11.8c-0.5,1.2-1.2,2.7-2.4,3.6c-0.9,0.7-2.3,1.2-3.5,0.6c-0.3-0.2-0.7-0.1-1,0.1c-0.3,0.2-0.4,0.6-0.4,0.9
				c0.4,2.4-0.2,4.8-1.6,6.8c-0.9,1.2-2.1,2.2-3.5,2.9c0.4-0.8,0.7-1.5,1-2.3c0.2-0.5-0.1-1.1-0.6-1.2c-0.5-0.2-1.1,0.1-1.2,0.6
				c-0.5,1.4-1.2,2.7-2,3.9c-0.2,0.1-0.4,0.3-0.4,0.6c-1.3,1.7-2.8,3.2-4.7,4.4c-2.3,1.5-5,2.5-7.6,3.4c-3.7,1.3-7.9,2.5-11.5,1.1
				c-1.6-0.6-3.2-1.8-4.8-3.7c-1-1.1-2.4-3.1-2.6-5.2c0.4,0.4,0.8,0.7,1.3,0.9c0.3,0.1,0.5,0.2,0.8,0.2c0.4,0,0.8-0.2,1-0.5
				c0.3-0.4,0.2-1-0.2-1.3c-0.3-0.2-0.6-0.2-0.9-0.1c-0.9-0.5-1.6-1.4-1.9-2.6c-0.4-1.2-0.4-2.6-0.4-3.9c0-0.9,0-1.9,0.1-2.8
				c0.2-1.3,0.7-2.6,1.4-3.8c0.9,0.7,2,1.1,3.1,1.1c0.5,0,0.9-0.1,1.4-0.2c0.5-0.2,0.8-0.7,0.6-1.2c-0.2-0.5-0.7-0.8-1.2-0.6
				c-1.2,0.4-2.6-0.4-3.3-1.4c-0.9-1.3-1.2-2.9-1.5-4.4c-0.5-3-1-5.9-0.2-8.4c0.6,0.5,1.4,0.8,2.1,1c0.1,0,0.1,0,0.2,0
				c0.4,0,0.8-0.3,0.9-0.7c0.1-0.5-0.2-1-0.7-1.2c-1-0.2-2-1-2.7-2.2c-0.7-1.2-1-2.7-1.2-3.8C96.8,119.4,96.6,117.9,96.9,116.6z"/>
		</g>
	</g>
</g>
</svg>
