<?xml version="1.0" encoding="utf-8"?>
<!-- Generator: Adobe Illustrator 16.0.0, SVG Export Plug-In . SVG Version: 6.00 Build 0)  -->
<!DOCTYPE svg PUBLIC "-//W3C//DTD SVG 1.1//EN" "http://www.w3.org/Graphics/SVG/1.1/DTD/svg11.dtd">
<svg version="1.1" id="Calque_1" xmlns="http://www.w3.org/2000/svg" xmlns:xlink="http://www.w3.org/1999/xlink" x="0px" y="0px"
	 width="200px" height="200px" viewBox="0 0 200 200" style="enable-background:new 0 0 200 200;" xml:space="preserve">
<g>
	<path style="fill:#FFFFFF;" d="M55,77.2h16.3c6.2,0,11.8,2.5,15.9,6.6c1.8,1.8,3.3,3.9,4.4,6.3H79.2c-2.2-1.8-4.9-2.8-7.9-2.8H55
		c-3.4,0-6.5,1.4-8.8,3.7c-2.3,2.3-3.7,5.4-3.7,8.8v0c0,3.4,1.4,6.5,3.7,8.8c2.3,2.3,5.4,3.7,8.8,3.7h16.3c3,0,5.7-1.1,7.9-2.8h12.4
		c-1.1,2.3-2.6,4.4-4.4,6.3c-4.1,4.1-9.7,6.6-15.9,6.6H55c-6.2,0-11.8-2.5-15.9-6.6c-4.1-4.1-6.6-9.7-6.6-15.9v0
		c0-6.2,2.5-11.8,6.6-15.9C43.2,79.7,48.9,77.2,55,77.2z"/>
	<path style="fill:#FFFFFF;" d="M122.2,77.2h16.3c6.2,0,11.8,2.5,15.9,6.6c4.1,4.1,6.6,9.7,6.6,15.9v0c0,6.2-2.5,11.8-6.6,15.9
		c-4.1,4.1-9.7,6.6-15.9,6.6h-16.3c-6.2,0-11.8-2.5-15.9-6.6c-1.8-1.8-3.3-3.9-4.4-6.3h12.4c2.2,1.8,4.9,2.8,7.9,2.8h16.3
		c3.4,0,6.5-1.4,8.8-3.7c2.3-2.3,3.7-5.4,3.7-8.8v0c0-3.4-1.4-6.5-3.7-8.8c-2.3-2.3-5.4-3.7-8.8-3.7h-16.3c-3,0-5.7,1.1-7.9,2.8
		h-12.4c1.1-2.3,2.6-4.4,4.4-6.3C110.4,79.7,116,77.2,122.2,77.2z"/>
	<path style="fill-rule:evenodd;clip-rule:evenodd;fill:#FFFFFF;" d="M78.2,95h40.6c2.5,0,4.6,2.1,4.6,4.6v0c0,2.5-2.1,4.6-4.6,4.6
		H78.2c-2.5,0-4.6-2.1-4.6-4.6v0C73.5,97.1,75.6,95,78.2,95z"/>
</g>
</svg>
