<?xml version="1.0" encoding="utf-8"?>
<!-- Generator: Adobe Illustrator 16.0.0, SVG Export Plug-In . SVG Version: 6.00 Build 0)  -->
<!DOCTYPE svg PUBLIC "-//W3C//DTD SVG 1.1//EN" "http://www.w3.org/Graphics/SVG/1.1/DTD/svg11.dtd">
<svg version="1.1" id="Calque_1" xmlns="http://www.w3.org/2000/svg" xmlns:xlink="http://www.w3.org/1999/xlink" x="0px" y="0px"
	 width="200px" height="200px" viewBox="0 0 200 200" style="enable-background:new 0 0 200 200;" xml:space="preserve">
<g>
	<path style="fill:#FFFFFF;" d="M48.4,113.2c5.8-5.7,11.5-11.4,17.3-17.1c8.1-8,16.2-16,24.3-24c0.2-0.2,0.4-0.4,0.7-0.7
		c5.6,5.9,11.2,11.7,16.8,17.5c7.4-7.4,14.8-14.8,22.2-22.2c-2.1-2.2-4.2-4.4-6.5-6.8c9.9-1.8,19.6-3.6,29.5-5.4
		c-2.2,9.8-4.3,19.5-6.5,29.3c-2.6-2.7-5.1-5.3-7.9-8.1c-1.8,1.9-3.5,3.8-5.3,5.6c-7.8,7.7-15.7,15.5-23.6,23.2
		c-0.4,0.4-0.8,0.7-1.2,1c-1.2,0.8-2,0.7-3-0.3c-4.1-4.2-8.2-8.4-12.3-12.6c-0.8-0.9-1.8-1.7-2.7-2.6c-2.3,2.3-4.7,4.8-7.1,7.2
		c-8.2,8.1-16.4,16.3-24.5,24.4c-1.2,1.2-2.4,1.3-3.8,0.7c-2.7-1.1-4.7-3-6.1-5.5c-0.1-0.1-0.2-0.3-0.3-0.4
		C48.4,115.4,48.4,114.3,48.4,113.2z"/>
	<path style="fill:#FFFFFF;" d="M139.3,81.4c0.2,21.8,0.4,43.4,0.5,65c-4.4,0-8.8,0-13.3,0c0-0.3,0-0.6,0-0.9c0-16.7,0-33.4,0-50.1
		c0-0.4,0.1-0.8,0.3-1.1c4-4.2,8-8.4,12-12.5C138.9,81.7,139,81.6,139.3,81.4z"/>
	<path style="fill:#FFFFFF;" d="M88.5,97.5c-0.3,16.4-0.6,32.6-0.9,48.9c-4.3,0-8.6,0-13,0c0-0.2-0.1-0.4-0.1-0.6
		c-0.2-11.1-0.3-22.2-0.5-33.3c0-0.3,0.1-0.7,0.3-1c4.5-4.6,9.1-9.1,13.7-13.7C88.2,97.8,88.3,97.7,88.5,97.5z"/>
	<path style="fill:#FFFFFF;" d="M122.3,97.5c0,16.3,0,32.4,0,48.6c-4.3,0-8.6,0-13,0c0-0.3,0-0.5,0-0.8c-0.1-11.3-0.1-22.6-0.2-33.9
		c0-0.6,0.1-1,0.6-1.4c4-3.9,8-7.8,11.9-11.8C121.8,98,122,97.8,122.3,97.5z"/>
	<path style="fill:#FFFFFF;" d="M92.2,98.1c4,3.9,8.2,7.9,12.4,12c0.2,0.2,0.3,0.5,0.3,0.8c0,11.8,0,23.5,0,35.3c0,0.1,0,0.2,0,0.3
		c-4.3,0-8.6,0-13,0C92,130.2,92.1,113.9,92.2,98.1z"/>
	<path style="fill:#FFFFFF;" d="M70.1,115.6c0,10.3,0,20.5,0,30.7c-4.4,0-8.7,0-13.1,0c0-0.3,0-0.5,0-0.8c0-5.6,0-11.2,0-16.7
		c0-0.3,0.2-0.8,0.4-1c4.1-4,8.2-7.9,12.3-11.8C69.8,115.8,69.9,115.7,70.1,115.6z"/>
</g>
</svg>
