<svg xmlns="http://www.w3.org/2000/svg" width="21.429" height="28.571" viewBox="0 0 21.429 28.571">
  <path id="Icon_awesome-clipboard-list" data-name="Icon awesome-clipboard-list" d="M18.75,3.571H14.286a3.571,3.571,0,1,0-7.143,0H2.679A2.679,2.679,0,0,0,0,6.25V25.893a2.679,2.679,0,0,0,2.679,2.679H18.75a2.679,2.679,0,0,0,2.679-2.679V6.25A2.679,2.679,0,0,0,18.75,3.571ZM5.357,23.661A1.339,1.339,0,1,1,6.7,22.321,1.336,1.336,0,0,1,5.357,23.661Zm0-5.357A1.339,1.339,0,1,1,6.7,16.964,1.336,1.336,0,0,1,5.357,18.3Zm0-5.357A1.339,1.339,0,1,1,6.7,11.607,1.336,1.336,0,0,1,5.357,12.946ZM10.714,2.232A1.339,1.339,0,1,1,9.375,3.571,1.336,1.336,0,0,1,10.714,2.232Zm7.143,20.536a.448.448,0,0,1-.446.446H9.375a.448.448,0,0,1-.446-.446v-.893a.448.448,0,0,1,.446-.446h8.036a.448.448,0,0,1,.446.446Zm0-5.357a.448.448,0,0,1-.446.446H9.375a.448.448,0,0,1-.446-.446v-.893a.448.448,0,0,1,.446-.446h8.036a.448.448,0,0,1,.446.446Zm0-5.357a.448.448,0,0,1-.446.446H9.375a.448.448,0,0,1-.446-.446v-.893a.448.448,0,0,1,.446-.446h8.036a.448.448,0,0,1,.446.446Z" fill="#22a773"/>
</svg>
