<?xml version="1.0" encoding="utf-8"?>
<!-- Generator: Adobe Illustrator 16.0.0, SVG Export Plug-In . SVG Version: 6.00 Build 0)  -->
<!DOCTYPE svg PUBLIC "-//W3C//DTD SVG 1.1//EN" "http://www.w3.org/Graphics/SVG/1.1/DTD/svg11.dtd">
<svg version="1.1" id="Calque_1" xmlns="http://www.w3.org/2000/svg" xmlns:xlink="http://www.w3.org/1999/xlink" x="0px" y="0px"
	 width="200px" height="200px" viewBox="0 0 200 200" style="enable-background:new 0 0 200 200;" xml:space="preserve">
<path style="fill:#FFFFFF;" d="M142,129.9l0.6-1.1h1.9V125v-3.8h-2.8v-58h0h13.2l-13.2-15.8h-2.4h-4.6L72.8,30.6l-0.3-0.1L53.4,42.9
	h-8.6v4.5h-7.1v15.8h7.1v4.7h12.7v-4.7h5V69h2.1v91.9H53.4v8.9h39v-8.9H80.9V69h1.3l4.3-5.8h52.8v58h-2.8v3.8v3.9h2.3l1.5,3.4l0,0
	c0.3-0.1,0.7-0.2,1.1-0.2c2.5,0,4.5,2.4,3.8,5c-0.4,1.4-1.5,2.5-2.9,2.8c-2.4,0.5-4.4-1.1-4.8-3.2h0.9l-1.7-2.6l-1.8,2.6h1.1
	c0.4,2.5,1.7,5.7,6.2,5.7c3.5,0,5.5-2.3,6-4.5c0.4-1.9,0.2-4.1-0.9-5.6C146,130.5,144.7,129.9,142,129.9z M57.4,50.3h3.8l-3.4,3.4
	l-0.4-0.4V50.3z M71.9,34.9l0.8-0.9l0.7,0.9H71.9z M74.1,34.9l-1.2-1.3l0.6-0.7L74.1,34.9L74.1,34.9z M72.6,33.4L72,32.7l0,0h1.3
	L72.6,33.4z M72.4,33.7l-1.1,1.1l0.6-1.7L72.4,33.7z M74.7,43.8h-4.5l2.3-2.8L74.7,43.8z M70.6,37.1h4l-2,2.1L70.6,37.1z M76.9,43.8
	L73.3,40l1.8-2.2l2,6H76.9z M70.2,38.1l1.5,1.9l-3.2,3.3L70.2,38.1z M141.7,52.1l2.7,2.8l-2.7,2.7V52.1z M125.9,50.3v9.5l-4.8-4.8
	L125.9,50.3L125.9,50.3z M128.5,52.4L131,55l-2.6,2.6V52.4z M128.9,50.3h6.9l-3.4,3.4L128.9,50.3z M119.9,53.7l-3.4-3.4h6.9
	L119.9,53.7z M115.8,52.2l2.8,2.8l-2.8,2.8V52.2z M113.3,59.6l-4.5-4.5l4.5-4.5V59.6z M107.5,53.7l-3.4-3.4h6.9L107.5,53.7z
	 M103.2,52l3,3l-3,3V52z M100.6,59.3L96.3,55l4.3-4.3V59.3z M95,53.7l-3.4-3.4h6.9L95,53.7z M88,50.9v8.2l0,0l-1.5-6.7L88,50.9z
	 M90.6,51.8l3.2,3.2l-3.2,3.2V51.8z M62.4,51.6v6.7L59,55L62.4,51.6z M95,56.3l4,4h-8L95,56.3z M107.5,56.3l4,4h-8L107.5,56.3z
	 M119.9,56.3l4,4h-8L119.9,56.3z M128.5,60.1l3.9-3.9l4,4h-7.8V60.1z M133.6,55l4.7-4.7h0.8v10h-0.3L133.6,55z M141.7,60.3v-0.1
	l3.9-3.9l3.9,4.1H141.7z M85.4,47.4l-0.3-1.2h-4.3h0l-5.3-10.1l-0.2-0.4l-1.7-3.2l55,14.9H85.4z M72.8,32.2l0.6,0.2h-0.9L72.8,32.2z
	 M71.3,33.1L70,35.7l-0.2,0.4l-5.3,10.1h-2.1v1.2h-5v-4.5h-1.1L71.3,33.1z M44.8,52.8l-2.5-2.5h2.5V52.8z M44.4,55L41,58.4v-6.8
	L44.4,55z M41.7,60.3l3.1-3.1v3.1H41.7z M57.4,56.7l0.4-0.4l4,4h-4.4V56.7z M73.7,152.6l4.1-4.1v8.3L73.7,152.6z M68.4,134.3h8.1
	l-4.1,4.1L68.4,134.3z M76.2,144.8h-7.6l3.8-3.8L76.2,144.8z M68.8,131.7l3.6-3.6l3.6,3.6H68.8z M68.1,121.2h8.6l-4.3,4.3
	L68.1,121.2z M69.1,118.5l3.4-3.4l3.4,3.4H69.1z M67.9,108.1h9l-4.5,4.5L67.9,108.1z M69.3,105.4l3.1-3.1l3.1,3.1H69.3z M67.7,94.9
	h9.4l-4.7,4.7L67.7,94.9z M69.5,92.3l2.9-2.9l2.9,2.9H69.5z M67.5,81.9L67.5,81.9l9.8-0.1l-4.9,4.9L67.5,81.9z M71.1,88.1l-3.6,3.6
	v-7.2L71.1,88.1z M71.1,101l-3.6,3.6v-7.2L71.1,101z M71.1,113.9l-3.6,3.6v-7.2L71.1,113.9z M71.1,126.8l-3.6,3.6v-7.2L71.1,126.8z
	 M71.1,139.7l-3.6,3.6v-7.2L71.1,139.7z M76.2,147.4l-3.8,3.8l-3.8-3.8H76.2z M73.7,139.7l4.1-4.1v8.3L73.7,139.7z M73.7,126.8
	l4.1-4.1v8.3L73.7,126.8z M73.7,113.9l4.1-4.1v8.3L73.7,113.9z M77.9,105.1l-4.1-4.1l4.1-4.1V105.1z M77.9,92.2l-4.1-4.1l4.1-4.1
	V92.2z M69.7,79.2l2.7-2.7l2.7,2.7H69.7z M67.5,69h9.7l-4.9,4.9L67.5,69z M71.1,75.2l-3.6,3.6v-7.2L71.1,75.2z M67.5,149l3.6,3.6
	l-3.6,3.6V149z M72.4,153.9l3.5,3.5h-7.1L72.4,153.9z M77.9,79.2h-0.1l-4-4l4.1-4.1V79.2z"/>
</svg>
