<svg xmlns="http://www.w3.org/2000/svg" width="26" height="21.667" viewBox="0 0 26 21.667">
  <path id="Icon_material-perm-media" data-name="Icon material-perm-media" d="M2.167,7.333H0V12.75H.011L0,22.5a2.173,2.173,0,0,0,2.167,2.167h19.5V22.5H2.167ZM23.833,5.167H15.167L13,3H6.5A2.164,2.164,0,0,0,4.344,5.167l-.011,13A2.173,2.173,0,0,0,6.5,20.333H23.833A2.173,2.173,0,0,0,26,18.167V7.333A2.173,2.173,0,0,0,23.833,5.167ZM7.583,17.083l4.875-6.5,3.792,4.886,2.708-3.261,3.792,4.875Z" transform="translate(0 -3)" fill="#22a773"/>
</svg>
