<?xml version="1.0" encoding="utf-8"?>
<!-- Generator: Adobe Illustrator 16.0.0, SVG Export Plug-In . SVG Version: 6.00 Build 0)  -->
<!DOCTYPE svg PUBLIC "-//W3C//DTD SVG 1.1//EN" "http://www.w3.org/Graphics/SVG/1.1/DTD/svg11.dtd">
<svg version="1.1" id="Calque_1" xmlns="http://www.w3.org/2000/svg" xmlns:xlink="http://www.w3.org/1999/xlink" x="0px" y="0px"
	 width="200px" height="200px" viewBox="0 0 200 200" style="enable-background:new 0 0 200 200;" xml:space="preserve">
<path style="fill:#FFFFFF;" d="M156.7,94.2H153l-12-16.9c0.4-0.6,0.6-1.4,0.6-2.2c0-2.1-1.6-3.9-3.6-4.3v-4.1h1.5
	c1.4,0,2.6-1.2,2.6-2.6s-1.2-2.6-2.6-2.6h-37l0,0h-1.9v-3.7c0-1.9-1.6-3.5-3.5-3.5c-1.9,0-3.5,1.6-3.5,3.5v3.7h-1.9l0,0h-37
	c-1.4,0-2.6,1.2-2.6,2.6s1.2,2.6,2.6,2.6h4.4v4.1c-2,0.4-3.5,2.1-3.5,4.3c0,0.8,0.2,1.5,0.6,2.1L44.1,94.2h-3.7
	c-0.7,0-1.3,0.6-1.3,1.3v2c0,0.7,0.6,1.3,1.3,1.3h1.3l3.7,11.8c0.3,1,1.3,1.7,2.4,1.7h16.6h7.9c1.1,0,2-0.7,2.4-1.7l3.7-11.8h1.3
	c0.7,0,1.3-0.6,1.3-1.3v-2c0-0.7-0.6-1.3-1.3-1.3h-3.7l-12-16.9c0.4-0.6,0.6-1.4,0.6-2.2c0-2.1-1.6-3.9-3.6-4.3v-4.1h31h1.9v61.8
	H83.4c-2.5,0-4.5,1.7-5.2,3.9l0,0c0,0,0,0,0,0c-0.1,0.2-0.1,0.4-0.2,0.7c-0.1,0.3-0.1,0.6-0.1,0.9v0.1h-0.3c-4.3,0-7.7,3.5-7.7,7.7
	c0,0,0,0,0,0v3.2h0l0,0h54.5l0,0v-3.2c0-0.5-0.1-1.1-0.2-1.6c-0.7-3.5-3.8-6.2-7.6-6.2h-0.3v-0.1c0-0.3,0-0.6-0.1-0.9
	c-0.4-2.6-2.6-4.6-5.4-4.6h-4.3h-5.9V66.8h1.9h33.9v4.1c-2,0.4-3.5,2.1-3.5,4.3c0,0.8,0.2,1.5,0.6,2.1l-12.1,16.9h-3.7
	c-0.7,0-1.3,0.6-1.3,1.3v2c0,0.7,0.6,1.3,1.3,1.3h1.3l3.7,11.8c0.3,1,1.3,1.7,2.4,1.7h16.6h7.9c1.1,0,2-0.7,2.4-1.7l3.7-11.8h1.3
	c0.7,0,1.3-0.6,1.3-1.3v-2C158,94.8,157.5,94.2,156.7,94.2z M57.2,78.5c0.5,0.4,1.2,0.8,1.9,0.9v14.8H46.1L57.2,78.5z M60.7,94.2
	V79.4c0.7-0.1,1.4-0.4,1.9-0.9l11.1,15.6H60.7z M138,79.4c0.7-0.1,1.4-0.4,1.9-0.9l11.1,15.6H138V79.4z M134.5,78.5
	c0.5,0.4,1.2,0.8,1.9,0.9v14.8h-13.1L134.5,78.5z"/>
</svg>
