<?xml version="1.0" encoding="utf-8"?>
<!-- Generator: Adobe Illustrator 16.0.0, SVG Export Plug-In . SVG Version: 6.00 Build 0)  -->
<!DOCTYPE svg PUBLIC "-//W3C//DTD SVG 1.1//EN" "http://www.w3.org/Graphics/SVG/1.1/DTD/svg11.dtd">
<svg version="1.1" id="Calque_1" xmlns="http://www.w3.org/2000/svg" xmlns:xlink="http://www.w3.org/1999/xlink" x="0px" y="0px"
	 width="200px" height="200px" viewBox="0 0 200 200" style="enable-background:new 0 0 200 200;" xml:space="preserve">
<g>
	<path style="fill:#FFFFFF;" d="M125.7,88.1H71.3c-2.4,0-4.4,2-4.4,4.4v37.8c0,2.4,2,4.4,4.4,4.4h54.4c2.4,0,4.4-2,4.4-4.4V92.5
		C130.1,90.1,128.1,88.1,125.7,88.1z M104.2,124.2h-11l2.3-12.7c-2.3-1.1-3.8-3.4-3.8-6.1c0-3.8,3-6.8,6.8-6.8s6.8,3,6.8,6.8
		c0,2.7-1.6,5-3.8,6.1L104.2,124.2z"/>
	<path style="fill:#FFFFFF;" d="M80.9,82.6v-1.8c0-9.7,7.9-17.6,17.6-17.6c9.7,0,17.6,7.9,17.6,17.6v1.8h7.9v-1.8
		c0-14-11.4-25.4-25.4-25.4c-14,0-25.4,11.4-25.4,25.4v1.8H80.9z"/>
</g>
</svg>
