<?xml version="1.0" encoding="utf-8"?>
<!-- Generator: Adobe Illustrator 22.1.0, SVG Export Plug-In . SVG Version: 6.00 Build 0)  -->
<svg version="1.1" id="Calque_1" xmlns="http://www.w3.org/2000/svg" xmlns:xlink="http://www.w3.org/1999/xlink" x="0px" y="0px"
	 viewBox="0 0 200 200" style="enable-background:new 0 0 200 200;" xml:space="preserve" width="2500px" height="2500px">
<style type="text/css">
	.st2{fill:#31464e;}
	.st3{fill:#31464e;}
</style>
<g>
	<g>
		<path class="st3" d="M79.6,67.5c-3.9,0-7.7,0.6-11.2,1.8h5c7.6,0,13.7,6.2,13.7,13.7v26.5c0,4-3.7,6.5-7.2,8.9
			c-1,0.7-2.5,1.7-3.2,2.3V140c1,0.1,2,0.1,2.9,0.1c20.1,0,36.3-16.3,36.3-36.3C115.9,83.8,99.6,67.5,79.6,67.5z"/>
	</g>
	<circle class="st2" cx="59.7" cy="57.2" r="13.4"/>
	<path class="st2" d="M73.3,73.3h-5.7c-2.3,0-4.2,1.9-4.2,4.2l0,0h-7.2l0,0c0-2.3-1.9-4.2-4.2-4.2h-5.7c-5.4,0-9.7,4.4-9.7,9.7v26.5
		c0,4.6,10.4,7.2,10.4,10.4v20.1c0,6.6,5.3,11.9,11.9,11.9h2c6.6,0,11.9-5.3,11.9-11.9V120c0-3.2,10.4-6.8,10.4-10.4V83
		C83.1,77.7,78.7,73.3,73.3,73.3z"/>
	<path class="st3" d="M124.9,35.7c-7.6,0-13.8,6.2-13.8,13.8c0,2.9,0.9,5.6,2.5,7.8l-10.1,10.1c-1.6,1.6-1.6,4.1,0,5.7
		c0.8,0.8,1.8,1.2,2.8,1.2s2-0.4,2.8-1.2L120,62.3c1.5,0.6,3.2,0.9,4.9,0.9c7.6,0,13.7-6.2,13.7-13.8
		C138.6,41.9,132.5,35.7,124.9,35.7z"/>
	<path class="st3" d="M159.2,91.5c-5.4-5.4-14.1-5.4-19.4,0c-2.1,2.1-3.3,4.6-3.8,7.3h-14.3c-2.2,0-4,1.8-4,4c0,1.1,0.4,2.1,1.2,2.8
		c0.7,0.7,1.7,1.2,2.8,1.2h15.2c0.7,1.5,1.6,2.9,2.8,4.2c5.4,5.4,14.1,5.4,19.4,0C164.6,105.5,164.6,96.8,159.2,91.5z"/>
	<path class="st3" d="M147.3,150.6c0-7.6-6.2-13.7-13.8-13.7c-2.9,0-5.6,0.9-7.8,2.5l-10.1-10.1c-1.6-1.6-4.1-1.5-5.7,0
		c-0.8,0.8-1.2,1.8-1.2,2.8c0,1,0.4,2,1.2,2.8l10.8,10.7c-0.6,1.5-0.9,3.2-0.9,4.9c0,7.6,6.2,13.7,13.8,13.7
		C141.2,164.3,147.3,158.2,147.3,150.6z"/>
</g>
</svg>
