<?xml version="1.0" encoding="utf-8"?>
<!-- Generator: Adobe Illustrator 22.1.0, SVG Export Plug-In . SVG Version: 6.00 Build 0)  -->
<svg version="1.1" id="Calque_1" xmlns="http://www.w3.org/2000/svg" xmlns:xlink="http://www.w3.org/1999/xlink" x="0px" y="0px"
	 viewBox="0 0 200 200" style="enable-background:new 0 0 200 200;" xml:space="preserve" width="2500px" height="2500px">
<style type="text/css">
	.st2{fill:#31464e;}
	.st3{fill:#31464e;}
</style>
<g>
	<g>
		<circle class="st2" cx="145.3" cy="113" r="7.6"/>
		<path class="st2" d="M153,122.2h-3.3c-1.3,0-2.4,1.1-2.4,2.4l0,0h-4.1l0,0c0-1.3-1.1-2.4-2.4-2.4h-3.3c-3.1,0-5.5,2.5-5.5,5.5
			v15.1c0,2.6,5.9,4.1,5.9,5.9v11.4c0,3.7,3,6.8,6.8,6.8h1.2c3.7,0,6.8-3,6.8-6.8v-11.4c0-1.8,5.9-3.9,5.9-5.9v-15.1
			C158.5,124.7,156.1,122.2,153,122.2z"/>
	</g>
	<rect x="55.1" y="31.7" class="st3" width="62" height="16"/>
	<g>
		<path class="st3" d="M74,166.2c0,0.3,0,0.5-0.1,0.8h24.3v-20.7H74V166.2z"/>
		<path class="st3" d="M130.7,122V52H41.6v115h25.1c-0.1-0.3-0.1-0.5-0.1-0.8v-23.7c0-2.1,1.7-3.7,3.7-3.7h31.6
			c2.1,0,3.7,1.7,3.7,3.7V167h25v-19.9c-1.3-1-2.3-2.4-2.3-4.2v-15.1C128.4,125.5,129.3,123.5,130.7,122z M69.5,125.7H52.6
			c-1.2,0-2.1-1-2.1-2.1s1-2.1,2.1-2.1h16.9c1.2,0,2.1,1,2.1,2.1S70.7,125.7,69.5,125.7z M69.5,106.7H52.6c-1.2,0-2.1-1-2.1-2.1
			c0-1.2,1-2.1,2.1-2.1h16.9c1.2,0,2.1,1,2.1,2.1C71.7,105.8,70.7,106.7,69.5,106.7z M69.5,87.7H52.6c-1.2,0-2.1-1-2.1-2.1
			s1-2.1,2.1-2.1h16.9c1.2,0,2.1,1,2.1,2.1S70.7,87.7,69.5,87.7z M69.5,68.8H52.6c-1.2,0-2.1-1-2.1-2.1s1-2.1,2.1-2.1h16.9
			c1.2,0,2.1,1,2.1,2.1S70.7,68.8,69.5,68.8z M94.6,125.7H77.7c-1.2,0-2.1-1-2.1-2.1s1-2.1,2.1-2.1h16.9c1.2,0,2.1,1,2.1,2.1
			S95.8,125.7,94.6,125.7z M94.6,106.7H77.7c-1.2,0-2.1-1-2.1-2.1c0-1.2,1-2.1,2.1-2.1h16.9c1.2,0,2.1,1,2.1,2.1
			C96.7,105.8,95.8,106.7,94.6,106.7z M94.6,87.7H77.7c-1.2,0-2.1-1-2.1-2.1s1-2.1,2.1-2.1h16.9c1.2,0,2.1,1,2.1,2.1
			S95.8,87.7,94.6,87.7z M94.6,68.8H77.7c-1.2,0-2.1-1-2.1-2.1s1-2.1,2.1-2.1h16.9c1.2,0,2.1,1,2.1,2.1S95.8,68.8,94.6,68.8z
			 M119.7,125.7h-16.9c-1.2,0-2.1-1-2.1-2.1s1-2.1,2.1-2.1h16.9c1.2,0,2.1,1,2.1,2.1S120.8,125.7,119.7,125.7z M119.7,106.7h-16.9
			c-1.2,0-2.1-1-2.1-2.1c0-1.2,1-2.1,2.1-2.1h16.9c1.2,0,2.1,1,2.1,2.1C121.8,105.8,120.8,106.7,119.7,106.7z M119.7,87.7h-16.9
			c-1.2,0-2.1-1-2.1-2.1s1-2.1,2.1-2.1h16.9c1.2,0,2.1,1,2.1,2.1S120.8,87.7,119.7,87.7z M119.7,68.8h-16.9c-1.2,0-2.1-1-2.1-2.1
			s1-2.1,2.1-2.1h16.9c1.2,0,2.1,1,2.1,2.1S120.8,68.8,119.7,68.8z"/>
	</g>
</g>
</svg>
