<?xml version="1.0" encoding="utf-8"?>
<!-- Generator: Adobe Illustrator 22.1.0, SVG Export Plug-In . SVG Version: 6.00 Build 0)  -->
<svg version="1.1" id="Calque_1" xmlns="http://www.w3.org/2000/svg" xmlns:xlink="http://www.w3.org/1999/xlink" x="0px" y="0px"
	 viewBox="0 0 200 200" style="enable-background:new 0 0 200 200;" xml:space="preserve" width="2500px" height="2500px">
<style type="text/css">
	.st2{fill:#31464e;}
</style>
<g>
	<path class="st2" d="M165.9,68h-22.1c-1.3,0-2.4,1.1-2.4,2.4v3.1c0,1.3,1.1,2.4,2.4,2.4h5.5v21.2h-16.8v0c0-2.5-2-4.5-4.5-4.5H72.1
		c-2.5,0-4.5,2-4.5,4.5v0H50.9V75.8h5.5c1.3,0,2.4-1.1,2.4-2.4v-3.1c0-1.3-1.1-2.4-2.4-2.4H34.2c-1.3,0-2.4,1.1-2.4,2.4v3.1
		c0,1.3,1.1,2.4,2.4,2.4H43v23.5c0,3.1,2.5,5.6,5.6,5.6h19v1.1c0,2.5,2,4.5,4.5,4.5h24.6v15.2v4.2l-23,11.9c-3.1,1.6-5,4.8-5,8.2
		v11.3c0,2.2,1.8,3.9,3.9,3.9h0c2.2,0,3.9-1.8,3.9-3.9v-12.2l20.1-10.5v22.6c0,2.2,1.8,3.9,3.9,3.9h0c2.2,0,3.9-1.8,3.9-3.9v-22.5
		l19,10.3v11.6c0,2.2,1.8,3.9,3.9,3.9h0c2.2,0,3.9-1.8,3.9-3.9V150c0-3.4-1.9-6.5-4.9-8.1l-22-11.9v-19.5H128c2.5,0,4.5-2,4.5-4.5
		v-1.1h19c3.1,0,5.6-2.5,5.6-5.6V75.8h8.8c1.3,0,2.4-1.1,2.4-2.4v-3.1C168.3,69.1,167.2,68,165.9,68z"/>
	<path class="st2" d="M75.7,74.2V40.6c0-4.1,3.3-7.4,7.4-7.4h34.2c4.1,0,7.4,3.3,7.4,7.4v33.5c0,4.1-3.3,7.4-7.4,7.4H83.1
		C79,81.6,75.7,78.3,75.7,74.2z"/>
</g>
</svg>
