<?xml version="1.0" encoding="utf-8"?>
<!-- Generator: Adobe Illustrator 22.1.0, SVG Export Plug-In . SVG Version: 6.00 Build 0)  -->
<svg version="1.1" id="Calque_1" xmlns="http://www.w3.org/2000/svg" xmlns:xlink="http://www.w3.org/1999/xlink" x="0px" y="0px"
	 viewBox="0 0 200 200" style="enable-background:new 0 0 200 200;" xml:space="preserve" width="2500px" height="2500px">
<style type="text/css">
	.st2{fill:#31464e;}
	.st3{fill:#31464e;}
	.st7{fill:none;stroke:#31464e;stroke-width:6;stroke-linecap:round;stroke-miterlimit:10;}
</style>
<g>
	<line class="st7" x1="103.3" y1="102.5" x2="103.3" y2="113.7"/>
	<g>
		<circle class="st2" cx="103.3" cy="32.8" r="9"/>
		<path class="st2" d="M112.6,43.7h-3.9c-1.6,0-2.9,1.3-2.9,2.9l0,0h-4.9l0,0c0-1.6-1.3-2.9-2.9-2.9h-3.9c-3.6,0-6.6,2.9-6.6,6.6v18
			c0,3.1,7.1,4.9,7.1,7.1v13.6c0,4.4,3.6,8.1,8.1,8.1h1.4c4.4,0,8.1-3.6,8.1-8.1V75.3c0-2.2,7.1-4.6,7.1-7.1v-18
			C119.1,46.6,116.2,43.7,112.6,43.7z"/>
	</g>
	<g>
		<g>
			<path class="st3" d="M144.7,115v5.5c0,1.9,1.5,3.5,3.5,3.5c1.9,0,3.5-1.5,3.5-3.5v-8.9c0-1.9-1.5-3.5-3.5-3.5H58.5
				c-1.9,0-3.5,1.5-3.5,3.5v8.9c0,1.9,1.5,3.5,3.5,3.5c1.9,0,3.5-1.5,3.5-3.5V115h37.9v5.5c0,1.9,1.5,3.5,3.5,3.5
				c1.9,0,3.5-1.5,3.5-3.5V115H144.7z"/>
			<path class="st3" d="M81.8,147.4H61.9v-13c0-1.9-1.5-3.5-3.5-3.5c-1.9,0-3.5,1.5-3.5,3.5v13H35.2c-1.9,0-3.5,1.5-3.5,3.5v8.9
				c0,1.9,1.5,3.5,3.5,3.5s3.5-1.5,3.5-3.5v-5.5h39.7v5.5c0,1.9,1.5,3.5,3.5,3.5s3.5-1.5,3.5-3.5v-8.9
				C85.2,149,83.7,147.4,81.8,147.4z"/>
			<path class="st3" d="M164.9,147.4h-13.2v-13c0-1.9-1.5-3.5-3.5-3.5c-1.9,0-3.5,1.5-3.5,3.5v13h-13.2c-1.9,0-3.5,1.5-3.5,3.5v8.9
				c0,1.9,1.5,3.5,3.5,3.5s3.5-1.5,3.5-3.5v-5.5h26.5v5.5c0,1.9,1.5,3.5,3.5,3.5s3.5-1.5,3.5-3.5v-8.9
				C168.3,149,166.8,147.4,164.9,147.4z"/>
		</g>
		<circle class="st2" cx="103.3" cy="129.7" r="10.1"/>
		<circle class="st2" cx="148.2" cy="129.7" r="10.1"/>
		<circle class="st2" cx="58.5" cy="129.7" r="10.1"/>
		<circle class="st2" cx="164.9" cy="166.2" r="10.1"/>
		<circle class="st2" cx="131.5" cy="166.2" r="10.1"/>
		<circle class="st2" cx="81.8" cy="166.2" r="10.1"/>
		<circle class="st2" cx="35.2" cy="166.2" r="10.1"/>
	</g>
</g>
</svg>
