<?xml version="1.0" encoding="utf-8"?>
<!-- Generator: Adobe Illustrator 22.1.0, SVG Export Plug-In . SVG Version: 6.00 Build 0)  -->
<svg version="1.1" id="Calque_1" xmlns="http://www.w3.org/2000/svg" xmlns:xlink="http://www.w3.org/1999/xlink" x="0px" y="0px"
	 viewBox="0 0 200 200" style="enable-background:new 0 0 200 200;" xml:space="preserve" width="2500px" height="2500px">
<style type="text/css">
	.st2{fill:#31464e;}
</style>
<circle class="st2" cx="55.2" cy="67.3" r="11.6"/>
<circle class="st2" cx="100.4" cy="67.3" r="11.6"/>
<circle class="st2" cx="145" cy="67.3" r="11.6"/>
<circle class="st2" cx="122.9" cy="54.6" r="11.6"/>
<circle class="st2" cx="78.4" cy="54.6" r="11.6"/>
<path class="st2" d="M67,81.3h-5c-2,0-3.7,1.6-3.7,3.7v0h-6.3v0c0-2-1.6-3.7-3.7-3.7h-5c-4.7,0-8.4,3.8-8.4,8.4v23c0,4,9,6.3,9,9
	v17.4c0,5.7,4.6,10.3,10.3,10.3h1.8c5.7,0,10.3-4.6,10.3-10.3v-17.4c0-2.8,9-5.9,9-9v-23C75.5,85.1,71.7,81.3,67,81.3z"/>
<path class="st2" d="M112,81.3h-5c-2,0-3.7,1.6-3.7,3.7v0h-6.3v0c0-2-1.6-3.7-3.7-3.7h-5c-4.7,0-8.4,3.8-8.4,8.4v23c0,4,9,6.3,9,9
	v17.4c0,5.7,4.6,10.3,10.3,10.3h1.8c5.7,0,10.3-4.6,10.3-10.3v-17.4c0-2.8,9-5.9,9-9v-23C120.4,85.1,116.7,81.3,112,81.3z"/>
<path class="st2" d="M156.8,81.3h-5c-2,0-3.7,1.6-3.7,3.7v0h-6.3v0c0-2-1.6-3.7-3.7-3.7h-5c-4.7,0-8.4,3.8-8.4,8.4v23c0,4,9,6.3,9,9
	v17.4c0,5.7,4.6,10.3,10.3,10.3h1.8c5.7,0,10.3-4.6,10.3-10.3v-17.4c0-2.8,9-5.9,9-9v-23C165.2,85.1,161.4,81.3,156.8,81.3z"/>
</svg>
