<?xml version="1.0" encoding="utf-8"?>
<!-- Generator: Adobe Illustrator 22.1.0, SVG Export Plug-In . SVG Version: 6.00 Build 0)  -->
<svg version="1.1" id="Calque_1" xmlns="http://www.w3.org/2000/svg" xmlns:xlink="http://www.w3.org/1999/xlink" x="0px" y="0px"
	 viewBox="0 0 200 200" style="enable-background:new 0 0 200 200;" xml:space="preserve" width="2500px" height="2500px">
<style type="text/css">
	.st2{fill:#31464e;}
</style>
<g>
	<circle class="st2" cx="100" cy="62.9" r="13.4"/>
	<path class="st2" d="M113.6,79h-5.7c-2.3,0-4.2,1.9-4.2,4.2v0h-7.2v0c0-2.3-1.9-4.2-4.2-4.2h-5.7c-5.4,0-9.7,4.4-9.7,9.7v26.5
		c0,4.6,10.4,7.2,10.4,10.4v20.1c0,6.6,5.3,11.9,11.9,11.9h2c6.6,0,11.9-5.3,11.9-11.9v-20.1c0-3.2,10.4-6.8,10.4-10.4V88.7
		C123.3,83.4,119,79,113.6,79z"/>
</g>
</svg>
