<?xml version="1.0" encoding="utf-8"?>
<!-- Generator: Adobe Illustrator 22.1.0, SVG Export Plug-In . SVG Version: 6.00 Build 0)  -->
<svg version="1.1" id="Calque_1" xmlns="http://www.w3.org/2000/svg" xmlns:xlink="http://www.w3.org/1999/xlink" x="0px" y="0px"
	 viewBox="0 0 200 200" style="enable-background:new 0 0 200 200;" xml:space="preserve" width="2500px" height="2500px">
<style type="text/css">
	.st2{fill:#31464e;}
	.st3{fill:#31464e;}
</style>
<g>
	<g>
		<circle class="st2" cx="73.3" cy="85.8" r="11.8"/>
		<path class="st2" d="M85.3,100.1h-5.1c-2.1,0-3.8,1.7-3.8,3.8v0h-6.4v0c0-2.1-1.7-3.8-3.8-3.8h-5.1c-4.8,0-8.6,3.9-8.6,8.6v23.5
			c0,4.1,9.2,6.4,9.2,9.2v17.8c0,5.8,4.7,10.5,10.5,10.5h1.8c5.8,0,10.5-4.7,10.5-10.5v-17.8c0-2.8,9.2-6,9.2-9.2v-23.5
			C93.9,103.9,90,100.1,85.3,100.1z"/>
	</g>
	<path class="st3" d="M119.8,30.3c-16.1,0-29.2,13.1-29.2,29.2c0,7.7,3,14.7,7.9,19.9l-5.9,9.2h27.2c16.1,0,29.2-13.1,29.2-29.2
		C148.9,43.4,135.9,30.3,119.8,30.3z M105.1,51.9H123c1.2,0,2.2,1,2.2,2.2s-1,2.2-2.2,2.2h-17.9c-1.2,0-2.2-1-2.2-2.2
		S103.9,51.9,105.1,51.9z M131.5,66.8h-26.4c-1.2,0-2.2-1-2.2-2.2c0-1.2,1-2.2,2.2-2.2h26.4c1.2,0,2.2,1,2.2,2.2
		C133.8,65.8,132.8,66.8,131.5,66.8z"/>
</g>
</svg>
