<svg xmlns="http://www.w3.org/2000/svg" width="90.055" height="90.52" viewBox="0 0 90.055 90.52">
  <g id="Groupe_459" data-name="Groupe 459" transform="translate(-864.844 -1457.545)">
    <g id="Groupe_459-2" data-name="Groupe 459" transform="translate(864.844 1457.545)">
      <path id="Tracé_63" data-name="Tracé 63" d="M21.239,0h-89.99c-.039,1.078-.065,2.161-.065,3.249A87.27,87.27,0,0,0,18.455,90.52c.932,0,1.86-.02,2.785-.048Z" transform="translate(68.816 0)" fill="#fff"/>
    </g>
    <g id="Groupe_460" data-name="Groupe 460" transform="translate(883.201 1465.899)">
      <path id="Tracé_1244" data-name="Tracé 1244" d="M57.672,100.8H45.129v13.183H57.672Zm-3.12,10.063h-6.3v-6.943h6.3Z" transform="translate(-32.556 -72.717)" fill="#21b273"/>
      <path id="Tracé_1245" data-name="Tracé 1245" d="M113.222,100.8H100.679v13.183h12.543Zm-3.12,10.063h-6.3v-6.943h6.3Z" transform="translate(-72.63 -72.717)" fill="#21b273"/>
      <path id="Tracé_1246" data-name="Tracé 1246" d="M57.672,34.944H45.129V48.127H57.672Zm-3.12,10.062h-6.3V38.063h6.3Z" transform="translate(-32.556 -25.209)" fill="#21b273"/>
      <path id="Tracé_1247" data-name="Tracé 1247" d="M113.222,34.944H100.679V48.127h12.543ZM110.1,45.006h-6.3V38.063h6.3Z" transform="translate(-72.63 -25.209)" fill="#21b273"/>
      <path id="Tracé_1248" data-name="Tracé 1248" d="M15.694,49.332h9.33V70.753h-9.33Zm12.45,0h9.329V70.753H28.144ZM6.879,3.12h39.58V70.753H40.594V46.211H12.575V70.753h-5.7ZM3.76,0V70.753H0v3.121H53.341V70.752h-3.76V0Z" fill="#21b273"/>
    </g>
  </g>
</svg>
