<svg xmlns="http://www.w3.org/2000/svg" width="310.599" height="169.456" viewBox="0 0 310.599 169.456">
  <g id="Groupe_471" data-name="Groupe 471" transform="translate(-215 -1709.988)">
    <path id="Tracé_708" data-name="Tracé 708" d="M161.515-2.408c-.284,1.134-3.213,12.971-13.78,26.354a87.143,87.143,0,0,1-22.108,19.725,105.371,105.371,0,0,1-36.26,13.905,105.385,105.385,0,0,1-38.831.69A85.972,85.972,0,0,1,12.958,41.819,65.835,65.835,0,0,1,0,28.988L18.487,15.124l-4.338,3.253,4.276-3.339.061.086-4.338,3.253,4.276-3.339c.026.055,5.4,7.224,16.153,13.05a64.665,64.665,0,0,0,20.394,6.941,83.586,83.586,0,0,0,29.863-.768A83.1,83.1,0,0,0,113.5,23.36,62.964,62.964,0,0,0,134.589,1.884a52.259,52.259,0,0,0,3.79-7.843c.351-.929.577-1.631.7-2.048l.116-.4.006-.026,6.648,1.871L139.18-8.337l.024-.1,6.648,1.871L139.18-8.337l22.336,5.929Z" transform="matrix(0.999, -0.035, 0.035, 0.999, 362.096, 1819.734)" fill="#21b273"/>
    <g id="Groupe_318" data-name="Groupe 318" transform="matrix(0.883, -0.469, 0.469, 0.883, 208.042, 1751.108)">
      <path id="Tracé_99" data-name="Tracé 99" d="M80.161,14.82,94.872,33.439-5.877,110.367l-14.71-18.618h0Z" transform="translate(20.587)" fill="#21b273"/>
    </g>
  </g>
</svg>
