<svg xmlns="http://www.w3.org/2000/svg" width="91.255" height="91.726" viewBox="0 0 91.255 91.726">
  <g id="Groupe_438" data-name="Groupe 438" transform="translate(-921.88 -1367.684)">
    <g id="Groupe_190" data-name="Groupe 190" transform="translate(1013.135 1459.41) rotate(180)">
      <path id="Tracé_63" data-name="Tracé 63" d="M91.255,0H.066C.027,1.093,0,2.189,0,3.293A88.433,88.433,0,0,0,88.433,91.726c.944,0,1.884-.02,2.822-.049Z" fill="#fff"/>
    </g>
    <path id="Tracé_661" data-name="Tracé 661" d="M650.286-239.809c-2.325,0-5.012-1.532-7.773-4.43-.45-.473-.881-.933-1.3-1.377-3.086-3.293-5.125-5.468-7.972-5.539-3.881-.1-14.748-.1-14.857-.1v-3.115c.11,0,11.014,0,14.935.1,4.15.1,6.805,2.936,10.167,6.523q.616.657,1.28,1.358c2.98,3.129,4.853,3.471,5.52,3.463a1.55,1.55,0,0,0,1.2-.5,5.264,5.264,0,0,0,1.3-2.609l-1.653-1.766,2.275-2.128,1.822,1.948a3.877,3.877,0,0,0,3.352-.816c.779-.759,1.261-1.323,1.259-1.789,0-.284-.16-.862-1.029-1.9a12.952,12.952,0,0,1-1.327-1.409l2.3-2.088q.71.683,1.253,1.309a5.753,5.753,0,0,0,2.907,1.573,1.944,1.944,0,0,0,1.523-.508c1.071-.9,1.115-1.483,1.13-1.673.068-.883-.751-2.1-1.847-3.439a16.038,16.038,0,0,1-1.079-1.274l2.423-1.954c.349.4.685.793,1,1.177,1.125,1.182,2.691,2.43,3.939,2.5a1.711,1.711,0,0,0,1.414-.625c2.456-2.575,1.11-4.368-3.065-8.473-.325-.319-.653-.641-.978-.967-3.655-3.655-11.476-11.215-12.4-12.1-.408-.263-1.951-1-4.144,1.1-2.722,2.606-6.357,5.809-7.794,7.065a7.179,7.179,0,0,1-3.732,1.741,5.638,5.638,0,0,1-5.53-2.351c-3.1-4.222-.791-6.5.893-8.164l.3-.3c1.732-1.732,12.11-11.768,12.93-12.561a11.232,11.232,0,0,1,7.824-3.358l.445-.008c4.158-.075,6.665-.121,10.126,3.175,3.042,2.9,7.737,6.935,7.784,6.975l.169.145.044.073c.176.173,1.411,1.255,4.617,1.255h12.923v3.115H679.943c-4.464,0-6.413-1.718-6.944-2.3-.654-.564-4.945-4.274-7.817-7.009-2.535-2.414-4-2.387-7.922-2.316l-.448.008a8.158,8.158,0,0,0-5.584,2.349l-.094.1c-.111.108-11.182,10.813-12.929,12.559l-.311.309a5.331,5.331,0,0,0-1.444,1.817c-.148.526.146,1.3.874,2.289a2.522,2.522,0,0,0,2.59,1.108,4.076,4.076,0,0,0,2.11-1c1.421-1.242,5.014-4.408,7.69-6.97,3.521-3.372,6.938-2.315,8.253-1.285l.121.105c.086.083,8.637,8.341,12.523,12.227.319.319.641.635.959.948,1.909,1.877,3.712,3.649,4.626,5.642,1.159,2.527.658,4.95-1.49,7.2a4.816,4.816,0,0,1-3.857,1.584,5.514,5.514,0,0,1-1.129-.191c0,.1-.005.205-.013.309a5.536,5.536,0,0,1-2.225,3.814A5.075,5.075,0,0,1,663.633-250a5.8,5.8,0,0,1-.7-.116,6.121,6.121,0,0,1-2.173,3.549,6.582,6.582,0,0,1-5.064,1.766,8.25,8.25,0,0,1-1.946,3.517,4.654,4.654,0,0,1-3.455,1.474ZM675.3-286.917Z" transform="translate(319.358 1686.537)" fill="#21b273"/>
  </g>
</svg>
