<svg id="Groupe_436" data-name="Groupe 436" xmlns="http://www.w3.org/2000/svg" width="90.055" height="90.52" viewBox="0 0 90.055 90.52">
  <g id="Groupe_190" data-name="Groupe 190" transform="translate(90.055 90.52) rotate(180)">
    <path id="Tracé_63" data-name="Tracé 63" d="M90.055,0H.065C.026,1.078,0,2.161,0,3.249A87.27,87.27,0,0,0,87.271,90.52c.932,0,1.86-.02,2.785-.048Z" fill="#21b273"/>
  </g>
  <path id="Tracé_661" data-name="Tracé 661" d="M649.867-240.564c-2.294,0-4.946-1.511-7.671-4.372q-.666-.7-1.28-1.359c-3.045-3.249-5.057-5.4-7.867-5.466-3.83-.1-14.554-.1-14.661-.1v-3.074c.108,0,10.87,0,14.738.1,4.1.1,6.716,2.9,10.033,6.437q.608.648,1.263,1.341c2.94,3.087,4.789,3.426,5.447,3.418a1.529,1.529,0,0,0,1.183-.495,5.2,5.2,0,0,0,1.284-2.575l-1.631-1.743,2.245-2.1,1.8,1.923a3.826,3.826,0,0,0,3.307-.8c.768-.749,1.244-1.306,1.243-1.766,0-.28-.158-.851-1.015-1.873a12.785,12.785,0,0,1-1.31-1.391l2.272-2.06q.7.675,1.236,1.291a5.679,5.679,0,0,0,2.869,1.553,1.919,1.919,0,0,0,1.5-.5c1.057-.893,1.1-1.463,1.115-1.651.067-.872-.741-2.075-1.823-3.394a15.817,15.817,0,0,1-1.064-1.257l2.391-1.929c.345.4.676.782.988,1.161,1.11,1.166,2.655,2.4,3.888,2.47a1.688,1.688,0,0,0,1.4-.617c2.423-2.541,1.095-4.311-3.025-8.361-.321-.315-.644-.633-.965-.954-3.607-3.607-11.325-11.067-12.233-11.944-.4-.26-1.926-.983-4.09,1.089-2.686,2.571-6.274,5.733-7.691,6.972a7.084,7.084,0,0,1-3.683,1.718,5.564,5.564,0,0,1-5.457-2.32c-3.056-4.167-.78-6.415.881-8.056l.294-.291c1.709-1.709,11.951-11.613,12.76-12.4a11.084,11.084,0,0,1,7.721-3.314l.439-.008c4.1-.074,6.578-.119,9.993,3.133,3,2.859,7.635,6.843,7.681,6.883l.167.143.043.072c.174.17,1.392,1.239,4.556,1.239h12.753v3.074H679.134c-4.4,0-6.329-1.7-6.853-2.269-.646-.557-4.88-4.218-7.714-6.917-2.5-2.382-3.948-2.355-7.817-2.285l-.442.008a8.053,8.053,0,0,0-5.51,2.318l-.092.1c-.11.107-11.035,10.671-12.759,12.394l-.307.3a5.262,5.262,0,0,0-1.425,1.793c-.146.519.144,1.279.863,2.259a2.489,2.489,0,0,0,2.556,1.093,4.022,4.022,0,0,0,2.082-.987c1.4-1.226,4.948-4.35,7.589-6.878,3.475-3.327,6.847-2.284,8.144-1.268l.119.1c.085.082,8.523,8.231,12.358,12.066.315.315.632.627.947.936,1.884,1.852,3.663,3.6,4.565,5.568,1.144,2.494.649,4.885-1.47,7.107a4.753,4.753,0,0,1-3.807,1.564,5.44,5.44,0,0,1-1.114-.188c0,.1-.005.2-.013.3a5.463,5.463,0,0,1-2.2,3.763,5.008,5.008,0,0,1-3.8,1.211,5.718,5.718,0,0,1-.692-.114,6.04,6.04,0,0,1-2.144,3.5,6.5,6.5,0,0,1-5,1.743,8.142,8.142,0,0,1-1.92,3.471,4.593,4.593,0,0,1-3.41,1.454Zm24.688-46.488Z" transform="translate(-602.731 318.57)" fill="#fff"/>
</svg>
