<svg xmlns="http://www.w3.org/2000/svg" width="1292.866" height="421.165" viewBox="0 0 1292.866 421.165">
  <g id="Groupe_472" data-name="Groupe 472" transform="translate(-6.623 97.728)">
    <g id="Groupe_211" data-name="Groupe 211" transform="translate(831.955 97.493) rotate(-65)">
      <g id="Groupe_158" data-name="Groupe 158" transform="translate(-49.823 184.582) rotate(-45)">
        <path id="Tracé_99" data-name="Tracé 99" d="M80.161,14.82,94.872,33.439-5.877,110.367l-14.71-18.618h0Z" transform="translate(20.587)" fill="#383838"/>
      </g>
    </g>
    <g id="Groupe_320" data-name="Groupe 320" transform="translate(-114.045 -74.647) rotate(-65)">
      <g id="Groupe_158-2" data-name="Groupe 158" transform="translate(-49.823 184.582) rotate(-45)">
        <path id="Tracé_99-2" data-name="Tracé 99" d="M80.161,14.82,94.872,33.439-5.877,110.367l-14.71-18.618h0Z" transform="translate(20.587)" fill="#383838"/>
      </g>
    </g>
    <g id="Groupe_319" data-name="Groupe 319" transform="translate(124.698 64.04) rotate(17)">
      <g id="Groupe_158-3" data-name="Groupe 158" transform="translate(-49.823 184.582) rotate(-45)">
        <path id="Tracé_99-3" data-name="Tracé 99" d="M80.161,14.82,94.872,33.439-5.877,110.367l-14.71-18.618h0Z" transform="translate(20.587)" fill="#383838"/>
      </g>
    </g>
    <path id="Tracé_684" data-name="Tracé 684" d="M161.515-2.408c-.284,1.134-3.213,12.971-13.78,26.354a87.143,87.143,0,0,1-22.108,19.725,105.371,105.371,0,0,1-36.26,13.905,105.385,105.385,0,0,1-38.831.69A85.972,85.972,0,0,1,12.958,41.819,65.835,65.835,0,0,1,0,28.988L18.487,15.124l-4.338,3.253,4.276-3.339.061.086-4.338,3.253,4.276-3.339c.026.055,5.4,7.224,16.153,13.05a64.665,64.665,0,0,0,20.394,6.941,83.586,83.586,0,0,0,29.863-.768A83.1,83.1,0,0,0,113.5,23.36,62.964,62.964,0,0,0,134.589,1.884a52.259,52.259,0,0,0,3.79-7.843c.351-.929.577-1.631.7-2.048l.116-.4.006-.026,6.648,1.871L139.18-8.337l.024-.1,6.648,1.871L139.18-8.337l22.336,5.929Z" transform="translate(1297.022 257.535) rotate(163)" fill="#383838"/>
    <path id="Tracé_710" data-name="Tracé 710" d="M161.515-2.408c-.284,1.134-3.213,12.971-13.78,26.354a87.143,87.143,0,0,1-22.108,19.725,105.371,105.371,0,0,1-36.26,13.905,105.385,105.385,0,0,1-38.831.69A85.972,85.972,0,0,1,12.958,41.819,65.835,65.835,0,0,1,0,28.988L18.487,15.124l-4.338,3.253,4.276-3.339.061.086-4.338,3.253,4.276-3.339c.026.055,5.4,7.224,16.153,13.05a64.665,64.665,0,0,0,20.394,6.941,83.586,83.586,0,0,0,29.863-.768A83.1,83.1,0,0,0,113.5,23.36,62.964,62.964,0,0,0,134.589,1.884a52.259,52.259,0,0,0,3.79-7.843c.351-.929.577-1.631.7-2.048l.116-.4.006-.026,6.648,1.871L139.18-8.337l.024-.1,6.648,1.871L139.18-8.337l22.336,5.929Z" transform="matrix(0.766, 0.643, -0.643, 0.766, 253.405, 73.437)" fill="#383838"/>
  </g>
</svg>
