<svg xmlns="http://www.w3.org/2000/svg" width="92" height="92.475" viewBox="0 0 92 92.475">
  <g id="Groupe_273" data-name="Groupe 273" transform="translate(-1241.801 -815.233)">
    <g id="Groupe_78" data-name="Groupe 78" transform="translate(1241.801 815.233)">
      <path id="Tracé_78" data-name="Tracé 78" d="M0,23.3H91.933c.04-1.1.067-2.207.067-3.32A89.155,89.155,0,0,0,2.845-69.171c-.952,0-1.9.02-2.845.049Z" transform="translate(0 69.171)" fill="#f4f4f4"/>
      <path id="Tracé_79" data-name="Tracé 79" d="M10.9,2.511H3.135A5.55,5.55,0,0,0-2.408-3.032h-.108A5.565,5.565,0,0,0-7.951-7.453a5.539,5.539,0,0,0-5.421,4.436h-.122a5.55,5.55,0,0,0-5.543,5.541H-26.8A5.551,5.551,0,0,0-32.34,8.068V55.683A5.551,5.551,0,0,0-26.8,61.226H10.9a5.551,5.551,0,0,0,5.543-5.543V8.054A5.56,5.56,0,0,0,10.9,2.511m-27.7,0A3.325,3.325,0,0,1-13.48-.815h2.218V-1.909A3.323,3.323,0,0,1-7.938-5.235,3.324,3.324,0,0,1-4.611-1.909V-.8h2.2A3.325,3.325,0,0,1,.918,2.524V5.85H-16.807Zm27.7,56.5H-26.8a3.322,3.322,0,0,1-3.325-3.325V8.054A3.322,3.322,0,0,1-26.8,4.729h7.761V8.054H3.121V4.729h7.761a3.324,3.324,0,0,1,3.326,3.325v47.63h.013A3.323,3.323,0,0,1,10.9,59.008" transform="translate(60.558 21.116)" fill="#21b572"/>
      <path id="Tracé_80" data-name="Tracé 80" d="M11.02,17.557H-26.672a6.046,6.046,0,0,1-6.039-6.039V-36.1a6.046,6.046,0,0,1,6.039-6.039h7.285a6.048,6.048,0,0,1,5.747-5.536,6.052,6.052,0,0,1,5.814-4.441A6.08,6.08,0,0,1-2-47.687a6.049,6.049,0,0,1,5.737,5.537H11.02a6.063,6.063,0,0,1,6.039,6.036V11.518a6.046,6.046,0,0,1-6.039,6.039m-37.693-58.7A5.052,5.052,0,0,0-31.719-36.1V11.518a5.053,5.053,0,0,0,5.047,5.048H11.02a5.053,5.053,0,0,0,5.047-5.048v-47.63a5.069,5.069,0,0,0-5.047-5.047H2.764v-.5A5.052,5.052,0,0,0-2.283-46.7h-.511l-.083-.394a5.08,5.08,0,0,0-4.949-4.025,5.054,5.054,0,0,0-4.936,4.037l-.08.4h-.527a5.052,5.052,0,0,0-5.047,5.047v.5ZM11.02,15.339H-26.672a3.825,3.825,0,0,1-3.821-3.821v-47.63a3.826,3.826,0,0,1,3.821-3.821h8.257v3.326H2.752v-3.326h8.255a3.826,3.826,0,0,1,3.821,3.821V11.022l.013.5a3.825,3.825,0,0,1-3.821,3.821M-26.672-38.941a2.833,2.833,0,0,0-2.83,2.829v47.63a2.834,2.834,0,0,0,2.83,2.83H11.02a2.834,2.834,0,0,0,2.822-2.62l-.005-.21v-47.63a2.833,2.833,0,0,0-2.83-2.829H3.742v3.325h-23.15v-3.325Zm28.21,1.122H-17.176v-3.836a3.826,3.826,0,0,1,3.821-3.821h1.722v-.6A3.825,3.825,0,0,1-7.813-49.9a3.825,3.825,0,0,1,3.821,3.821v.612h1.709A3.826,3.826,0,0,1,1.538-41.64Zm-17.723-.991H.547v-2.83a2.833,2.833,0,0,0-2.83-2.83h-2.7v-1.6a2.834,2.834,0,0,0-2.83-2.83,2.834,2.834,0,0,0-2.83,2.83v1.591h-2.713a2.833,2.833,0,0,0-2.83,2.829Z" transform="translate(60.433 65.28)" fill="#21b572"/>
      <path id="Tracé_82" data-name="Tracé 82" d="M172.978-52.327h2.217v2.217h-2.217Z" transform="translate(-121.479 74.846)" fill="#21b572"/>
      <path id="Tracé_83" data-name="Tracé 83" d="M175.816-49.489h-3.209V-52.7h3.209Zm-2.217-.992h1.226v-1.226H173.6Z" transform="translate(-121.604 74.721)" fill="#21b572"/>
      <path id="Tracé_84" data-name="Tracé 84" d="M169.661-52.327h2.217v2.217h-2.217Z" transform="translate(-122.596 74.846)" fill="#21b572"/>
      <path id="Tracé_85" data-name="Tracé 85" d="M172.5-49.489H169.29V-52.7H172.5Zm-2.218-.992h1.226v-1.226h-1.226Z" transform="translate(-122.721 74.721)" fill="#21b572"/>
      <path id="Tracé_86" data-name="Tracé 86" d="M176.3-52.327h2.217v2.217H176.3Z" transform="translate(-120.361 74.846)" fill="#21b572"/>
      <path id="Tracé_87" data-name="Tracé 87" d="M179.133-49.489h-3.209V-52.7h3.209Zm-2.218-.992h1.226v-1.226h-1.226Z" transform="translate(-120.486 74.721)" fill="#21b572"/>
      <path id="Tracé_88" data-name="Tracé 88" d="M1.652,1.257l3.1-3.1a1.111,1.111,0,0,0,0-1.568,1.111,1.111,0,0,0-1.568,0L.084-.3l-3.1-3.1a1.111,1.111,0,0,0-1.568,0,1.111,1.111,0,0,0,0,1.568l3.1,3.1-3.1,3.1a1.1,1.1,0,0,0,0,1.555,1.111,1.111,0,0,0,.785.325,1.108,1.108,0,0,0,.783-.325l3.1-3.1,3.1,3.1A1.109,1.109,0,1,0,4.748,4.353Z" transform="translate(40.897 38.431)" fill="#21b572"/>
      <path id="Tracé_89" data-name="Tracé 89" d="M2.36,2.764a1.593,1.593,0,0,1-1.134-.471L-1.52-.451-4.266,2.294a1.645,1.645,0,0,1-2.269,0A1.59,1.59,0,0,1-7,1.149,1.565,1.565,0,0,1-6.529.033l2.741-2.739L-6.535-5.452a1.608,1.608,0,0,1,0-2.269,1.606,1.606,0,0,1,2.269,0l2.745,2.746L1.225-7.735a1.607,1.607,0,0,1,2.27,0,1.607,1.607,0,0,1,0,2.27L.749-2.721,3.495.025A1.6,1.6,0,0,1,2.36,2.764M-1.52-1.854,1.927,1.593a.628.628,0,0,0,.868,0,.615.615,0,0,0,0-.868L-.652-2.721,2.794-6.166a.614.614,0,0,0,0-.868.614.614,0,0,0-.868,0L-1.519-3.573-4.967-7.021a.614.614,0,0,0-.868,0,.616.616,0,0,0,0,.868l3.447,3.447L-5.834.74a.576.576,0,0,0-.179.416.607.607,0,0,0,.179.437.628.628,0,0,0,.868,0Z" transform="translate(42.501 42.408)" fill="#21b572"/>
      <path id="Tracé_90" data-name="Tracé 90" d="M6.9,1.206,2.438-3.255a1.109,1.109,0,0,0-1.568,0,1.109,1.109,0,0,0,0,1.568L3.561,1A26.185,26.185,0,0,0-20.478,27.068a1.114,1.114,0,0,0,1.108,1.11,1.115,1.115,0,0,0,1.11-1.11A23.968,23.968,0,0,1,3.289,3.248l-2.5,2.5A1.109,1.109,0,0,0,2.356,7.317L6.9,2.774a1.111,1.111,0,0,0,0-1.568" transform="translate(56.456 44.877)" fill="#21b572"/>
      <path id="Tracé_91" data-name="Tracé 91" d="M.4,8.249a1.606,1.606,0,0,1-1.6-1.6A26.792,26.792,0,0,1,22.245-19.809l-1.952-1.952a1.6,1.6,0,0,1-.471-1.136,1.593,1.593,0,0,1,.471-1.134,1.644,1.644,0,0,1,2.269,0l4.461,4.461a1.606,1.606,0,0,1,0,2.269L22.48-12.757a1.644,1.644,0,0,1-2.269,0,1.6,1.6,0,0,1-.469-1.135,1.6,1.6,0,0,1,.469-1.135L21.684-16.5A23.353,23.353,0,0,0,2.01,6.644,1.607,1.607,0,0,1,.4,8.249M21.427-23.508a.608.608,0,0,0-.433.179.605.605,0,0,0-.179.433.6.6,0,0,0,.179.434l3.449,3.449-1.07.086A25.784,25.784,0,0,0-.208,6.644.621.621,0,0,0,.4,7.258a.622.622,0,0,0,.614-.614,24.349,24.349,0,0,1,22-24.314l1.381-.138-3.483,3.483a.611.611,0,0,0-.179.433.609.609,0,0,0,.179.433.628.628,0,0,0,.868,0L26.323-18a.615.615,0,0,0,0-.868l-4.461-4.461a.608.608,0,0,0-.434-.179" transform="translate(36.682 65.301)" fill="#21b572"/>
      <path id="Tracé_92" data-name="Tracé 92" d="M1.4,0a5.543,5.543,0,0,0,0,11.086A5.543,5.543,0,0,0,1.4,0m0,8.869A3.326,3.326,0,1,1,4.723,5.543,3.325,3.325,0,0,1,1.4,8.869" transform="translate(61.174 60.183)" fill="#21b572"/>
      <path id="Tracé_93" data-name="Tracé 93" d="M1.522,3.044A6.045,6.045,0,0,1-4.517-3,6.046,6.046,0,0,1,1.522-9.034,6.046,6.046,0,0,1,7.561-3,6.045,6.045,0,0,1,1.522,3.044m0-11.086A5.052,5.052,0,0,0-3.525-3,5.053,5.053,0,0,0,1.522,2.053,5.053,5.053,0,0,0,6.569-3,5.052,5.052,0,0,0,1.522-8.042m0,8.869A3.826,3.826,0,0,1-2.3-3,3.825,3.825,0,0,1,1.522-6.816,3.826,3.826,0,0,1,5.344-3,3.827,3.827,0,0,1,1.522.827m0-6.652A2.834,2.834,0,0,0-1.308-3a2.833,2.833,0,0,0,2.83,2.83A2.832,2.832,0,0,0,4.352-3a2.833,2.833,0,0,0-2.83-2.83" transform="translate(61.05 68.721)" fill="#21b572"/>
    </g>
  </g>
</svg>
