<svg xmlns="http://www.w3.org/2000/svg" width="86.745" height="86.301" viewBox="0 0 86.745 86.301">
  <g id="Groupe_434" data-name="Groupe 434" transform="translate(0 0)">
    <path id="Tracé_53" data-name="Tracé 53" d="M0,0V86.237c1.035.038,2.07.064,3.114.064A83.631,83.631,0,0,0,86.745,2.669c0-.893-.019-1.782-.046-2.669Z" transform="translate(0 0)" fill="#21b273"/>
    <path id="Tracé_659" data-name="Tracé 659" d="M14.163,28.327A14.164,14.164,0,1,1,28.327,14.164,14.179,14.179,0,0,1,14.163,28.327m0-24.161a10,10,0,1,0,10,10,10.009,10.009,0,0,0-10-10" transform="translate(29.207 19.627)" fill="#fff"/>
    <path id="Tracé_660" data-name="Tracé 660" d="M44.433,22.98H40.267c0-10.726-7.761-18.815-18.051-18.815S4.165,12.254,4.165,22.98H0C0,10.094,9.758,0,22.216,0S44.433,10.094,44.433,22.98" transform="translate(21.156 52.953)" fill="#fff"/>
  </g>
</svg>
