<svg xmlns="http://www.w3.org/2000/svg" width="92" height="91.529" viewBox="0 0 92 91.529">
  <g id="Groupe_442" data-name="Groupe 442" transform="translate(-324.049 -1367.684)">
    <path id="Tracé_53" data-name="Tracé 53" d="M0,0V91.461c1.1.04,2.2.068,3.3.068A88.7,88.7,0,0,0,92,2.83c0-.947-.02-1.89-.049-2.83Z" transform="translate(324.049 1367.684)" fill="#fff"/>
    <path id="Tracé_659" data-name="Tracé 659" d="M15.022,30.043A15.022,15.022,0,1,1,30.043,15.022,15.038,15.038,0,0,1,15.022,30.043m0-25.625a10.6,10.6,0,1,0,10.6,10.6,10.615,10.615,0,0,0-10.6-10.6" transform="translate(355.026 1388.5)" fill="#21b273"/>
    <path id="Tracé_660" data-name="Tracé 660" d="M47.125,24.372H42.706C42.706,13,34.475,4.417,23.562,4.417S4.417,13,4.417,24.372H0C0,10.705,10.349,0,23.562,0S47.125,10.705,47.125,24.372" transform="translate(346.486 1423.845)" fill="#21b273"/>
  </g>
</svg>
