<?xml version="1.0" encoding="utf-8"?>
<!-- Generator: Adobe Illustrator 16.0.0, SVG Export Plug-In . SVG Version: 6.00 Build 0)  -->
<!DOCTYPE svg PUBLIC "-//W3C//DTD SVG 1.1//EN" "http://www.w3.org/Graphics/SVG/1.1/DTD/svg11.dtd">
<svg version="1.1" id="Calque_1" xmlns="http://www.w3.org/2000/svg" xmlns:xlink="http://www.w3.org/1999/xlink" x="0px" y="0px"
	 width="200px" height="200px" viewBox="0 0 200 200" style="enable-background:new 0 0 200 200;" xml:space="preserve">
<g>
	<path style="fill-rule:evenodd;clip-rule:evenodd;fill:#357AB7;" d="M146.5,76.9c17.7,13.8,29.1,35.4,29.1,59.6h-32.8
		c0-15.1-7.9-28.5-19.8-36L146.5,76.9z"/>
	<path style="fill-rule:evenodd;clip-rule:evenodd;fill:#357AB7;" d="M24.4,136.4c0-24.2,11.4-45.7,29.1-59.6L77,100.4
		c-11.9,7.6-19.8,20.9-19.8,36H24.4z"/>
	<path style="fill-rule:evenodd;clip-rule:evenodd;fill:#357AB7;" d="M56.1,74.9c12.4-8.8,27.5-14,43.9-14c16.4,0,31.5,5.2,43.9,14
		l-23.8,23.8c-6-3.2-12.8-5-20.1-5c-7.3,0-14.1,1.8-20.1,5L56.1,74.9z"/>
	<path style="fill-rule:evenodd;clip-rule:evenodd;fill:#357AB7;" d="M100,136.7c-1.7,2.5-5.1,3.2-7.6,1.5l-24.4-22l30.5,12.9l0,0
		C101,130.8,101.7,134.2,100,136.7L100,136.7z"/>
</g>
</svg>
