<?xml version="1.0" encoding="utf-8"?>
<!-- Generator: Adobe Illustrator 16.0.0, SVG Export Plug-In . SVG Version: 6.00 Build 0)  -->
<!DOCTYPE svg PUBLIC "-//W3C//DTD SVG 1.1//EN" "http://www.w3.org/Graphics/SVG/1.1/DTD/svg11.dtd">
<svg version="1.1" id="Calque_1" xmlns="http://www.w3.org/2000/svg" xmlns:xlink="http://www.w3.org/1999/xlink" x="0px" y="0px"
	 width="200px" height="200px" viewBox="0 0 200 200" style="enable-background:new 0 0 200 200;" xml:space="preserve">
<g>
	<g>
		<path style="fill:#357AB7;" d="M114.7,73.1c-0.2-1.2-1.4-1.9-2.5-1.7c-1.2,0.2-1.9,1.4-1.7,2.5c0.4,2.1,0.6,4.2,0.6,6.3
			c0,1.2,1,2.1,2.1,2.1s2.1-1,2.1-2.1C115.5,77.9,115.2,75.5,114.7,73.1z"/>
		<path style="fill:#357AB7;" d="M111.9,70.3c1.1-0.4,1.6-1.7,1.2-2.8C107.8,54,94.9,45.2,80.3,45.2c-1.2,0-2.1,1-2.1,2.1
			s1,2.1,2.1,2.1c12.8,0,24.1,7.7,28.8,19.7c0.3,0.8,1.1,1.4,2,1.4C111.4,70.5,111.6,70.4,111.9,70.3z"/>
		<path style="fill:#357AB7;" d="M166.2,151.6l-31.5-31.5c-3.2-3.2-8-3.9-11.8-2l-5.2-5.2c7.6-8.7,12.2-20.1,12.2-32.5
			c0-27.3-22.2-49.6-49.6-49.6C53,30.7,30.8,53,30.8,80.3c0,27.3,22.2,49.6,49.6,49.6c12.4,0,23.8-4.6,32.5-12.1l5.2,5.2
			c-1.8,3.9-1.2,8.6,2,11.8l31.5,31.5c2,2,4.7,3,7.3,3s5.3-1,7.3-3C170.3,162.2,170.3,155.6,166.2,151.6z M80.3,123
			c-23.5,0-42.7-19.1-42.7-42.7s19.1-42.7,42.7-42.7S123,56.8,123,80.3S103.9,123,80.3,123z M154.4,146.6c-0.2,0.2-0.5,0.3-0.7,0.3
			c-0.3,0-0.6-0.1-0.8-0.3c-7.4-7.5-14.9-15-22.4-22.4c-0.4-0.4-0.4-1.1,0-1.5c0.4-0.4,1.1-0.4,1.5,0c7.5,7.3,15,14.9,22.4,22.4
			C154.9,145.5,154.9,146.2,154.4,146.6z M163.5,155.7c-0.2,0.2-0.5,0.3-0.8,0.3s-0.5-0.1-0.8-0.3l-6.5-6.5c-0.4-0.4-0.4-1.1,0-1.5
			c0.4-0.4,1.1-0.4,1.5,0l6.5,6.5C164,154.6,164,155.3,163.5,155.7z"/>
	</g>
</g>
</svg>
