<svg xmlns="http://www.w3.org/2000/svg" width="793.154" height="500.926" viewBox="0 0 793.154 500.926"><defs><style>.a{fill:#f05924;}.b{fill:#004266;}.c{fill:#005e8a;}.d{fill:#0070ba;}.e{fill:#178ccf;}.f{fill:#29a8e0;}.g{fill:#00a6a6;}.h{fill:#00a685;}.i{fill:#21ab70;}.j{fill:#21b273;}.k{fill:#24b25c;}.l{fill:#8ac440;}.m{fill:#d6de21;}.n{fill:#faed21;}.o{fill:#fc3;}.p{fill:#faad3b;}.q{fill:#f5911f;}.r{font-size:19px;}.aj,.r,.x{font-family:Montserrat-Medium, Montserrat;font-weight:500;}.s{letter-spacing:0.003em;}.t{letter-spacing:-0.009em;}.u{fill:#1c1c1c;}.aa,.ab,.ac,.aj,.v,.x{fill:#383838;}.v{font-size:26px;}.ab,.ac,.v{font-family:Montserrat-ExtraBold, Montserrat;font-weight:800;}.w{letter-spacing:0.008em;}.x{font-size:16px;}.y{letter-spacing:-0.011em;}.z{letter-spacing:-0.008em;}.ab{font-size:24px;}.ac{font-size:25px;}.ad{letter-spacing:-0.007em;}.ae{letter-spacing:0.002em;}.af{letter-spacing:0.015em;}.ag{letter-spacing:-0.014em;}.ah{letter-spacing:-0.015em;}.ai{letter-spacing:-0.005em;}.aj{font-size:17px;}</style></defs><g transform="translate(-43.426 -504.958)"><g transform="translate(99.179 504.958)"><path class="a" d="M356.983,614.244a288.288,288.288,0,0,0-2.388-51.728l82.078-11.293a371.276,371.276,0,0,1,3.082,66.636Z" transform="translate(297.292 -233.14)"/><path class="b" d="M68.76,617.494c-.474-11.728-.387-23.65.257-35.429.57-10.4,1.583-20.873,3.016-31.137l82.058,11.444c-1.114,7.979-1.9,16.13-2.344,24.222-.5,9.168-.572,18.438-.2,27.553Z" transform="translate(-68.459 -233.518)"/><path class="c" d="M152.189,598.062,70.236,585.878A368.738,368.738,0,0,1,86,521L164.4,547.8a285.632,285.632,0,0,0-12.209,50.258" transform="translate(-66.188 -271.775)"/><path class="d" d="M155.785,581.207,77.637,553.686a367.331,367.331,0,0,1,27.849-60.733L177.34,534.2a284.393,284.393,0,0,0-21.554,47" transform="translate(-56.727 -307.623)"/><path class="e" d="M162.075,564.045,90.6,522.142a369.867,369.867,0,0,1,38.839-54.293l62.754,54.1a286.621,286.621,0,0,0-30.118,42.1" transform="translate(-40.158 -339.712)"/><path class="f" d="M170.873,547.194l-62.262-54.662a371.546,371.546,0,0,1,48.349-45.968L208.414,511.5a288.621,288.621,0,0,0-37.541,35.691" transform="translate(-17.135 -366.92)"/><path class="g" d="M181.851,531.285l-50.866-65.4a370.632,370.632,0,0,1,56.15-36.051l38.281,73.478a287.8,287.8,0,0,0-43.565,27.972" transform="translate(11.464 -388.304)"/><path class="h" d="M194.547,516.891,156.933,443.07a368.089,368.089,0,0,1,62-24.783L242.554,497.7a285.112,285.112,0,0,0-48.007,19.192" transform="translate(44.632 -403.065)"/><path class="i" d="M208.451,504.53l-22.9-79.627a367.5,367.5,0,0,1,65.607-12.528l8.069,82.459a284.437,284.437,0,0,0-50.78,9.7" transform="translate(81.218 -410.621)"/><path class="j" d="M223.135,495.576l-7.322-82.529a372.87,372.87,0,0,1,53.147-.884c4.495.246,9.045.576,13.524.986l-7.52,82.509c-3.488-.317-7.031-.576-10.532-.768a289.561,289.561,0,0,0-41.3.686" transform="translate(119.895 -411.605)"/><path class="k" d="M293.728,504.639a286.869,286.869,0,0,0-50.818-9.778l8.259-82.438A369.856,369.856,0,0,1,316.7,425.035Z" transform="translate(154.531 -410.56)"/><path class="l" d="M314.3,517.013a284.123,284.123,0,0,0-47.991-19.249L290,418.372a367.446,367.446,0,0,1,62.021,24.876Z" transform="translate(184.437 -402.956)"/><path class="m" d="M331.873,531.433a285.933,285.933,0,0,0-43.489-28.047l38.4-73.419a369,369,0,0,1,56.113,36.19Z" transform="translate(212.658 -388.135)"/><path class="n" d="M345.812,547.36a288.386,288.386,0,0,0-37.445-35.787l51.613-64.811a371.284,371.284,0,0,1,48.235,46.1Z" transform="translate(238.201 -366.667)"/><path class="o" d="M355.582,564.225a287.961,287.961,0,0,0-30.036-42.184L388.439,468.1a370.959,370.959,0,0,1,38.7,54.352Z" transform="translate(260.16 -339.386)"/><path class="p" d="M360.793,581.391a285.587,285.587,0,0,0-21.5-47.041l71.929-41.122a368.568,368.568,0,0,1,27.742,60.722Z" transform="translate(277.738 -307.272)"/><path class="q" d="M361.248,598.242A284.218,284.218,0,0,0,349.1,548l78.424-26.728A367.311,367.311,0,0,1,443.221,586.2Z" transform="translate(290.274 -271.429)"/></g><text class="r" transform="translate(44.426 559.297)"><tspan x="0" y="0">Je </tspan><tspan class="s" y="0">m</tspan><tspan y="0">e sens </tspan></text><text class="r" transform="translate(44.426 583.902)"><tspan x="0" y="0">un peu </tspan><tspan class="t" y="0">f</tspan><tspan y="0">atigué</tspan></text><g transform="translate(125.151 605.088)"><path class="u" d="M144.534,527.458a1.21,1.21,0,0,0,1.237-1.037c1.8.793,1.889-2.08,1.315-2.953L135.8,506.325c-1.622-2.463-3.5-.18-2.4,1.88l5.923,11.07C111.57,506.051,85.514,489.438,82.987,457.7c-.182-2.3-3.344-3.219-3.117-.339,2.684,33.686,29.742,51.825,59.362,66.01l-16.868.508c-2.251.068-1.353,4.292.533,4.237l21.636-.654" transform="translate(-79.859 -455.556)"/></g><text class="v" transform="translate(157.428 958.028)"><tspan x="0" y="0">Ma</tspan><tspan class="w" y="0">n</tspan><tspan y="0">que</tspan></text><text class="x" transform="translate(157.428 979.012)"><tspan x="0" y="0">ca</tspan><tspan class="y" y="0">r</tspan><tspan y="0">e</tspan><tspan class="s" y="0">n</tspan><tspan class="z" y="0">c</tspan><tspan y="0">e ou </tspan></text><path class="aa" d="M95.8,626.922a1.169,1.169,0,0,1-.847-.328,1.072,1.072,0,0,1-.337-.8,1.1,1.1,0,0,1,.337-.811,1.148,1.148,0,0,1,.847-.337,1.19,1.19,0,0,1,.848.319,1.042,1.042,0,0,1,.337.793,1.125,1.125,0,0,1-.337.829,1.148,1.148,0,0,1-.848.337Zm-.875,1.859h1.75v9.66h-1.75Zm10.243-.091a3.989,3.989,0,0,1,2.925,1.066,4.2,4.2,0,0,1,1.084,3.126v5.559h-1.75v-5.358a2.972,2.972,0,0,0-.674-2.114,2.535,2.535,0,0,0-1.932-.711,3.008,3.008,0,0,0-2.242.829,3.243,3.243,0,0,0-.82,2.379v4.976h-1.75v-9.66h1.677v1.458a3.429,3.429,0,0,1,1.431-1.148,5.011,5.011,0,0,1,2.05-.4Zm10.024,9.86a8.12,8.12,0,0,1-2.278-.319,4.981,4.981,0,0,1-1.713-.811l.729-1.385a5.25,5.25,0,0,0,1.549.729,6.379,6.379,0,0,0,1.841.273q2.3,0,2.3-1.312a.849.849,0,0,0-.31-.693,2,2,0,0,0-.775-.374c-.31-.08-.75-.166-1.321-.264a12.965,12.965,0,0,1-1.9-.419,2.939,2.939,0,0,1-1.267-.8,2.226,2.226,0,0,1-.529-1.586,2.476,2.476,0,0,1,1.094-2.105,4.9,4.9,0,0,1,2.934-.793,8.124,8.124,0,0,1,1.932.237,5.179,5.179,0,0,1,1.586.638l-.747,1.385a5.028,5.028,0,0,0-2.789-.766,3.242,3.242,0,0,0-1.695.365,1.1,1.1,0,0,0-.583.966.92.92,0,0,0,.328.747,2.069,2.069,0,0,0,.811.4q.482.126,1.358.292a14.837,14.837,0,0,1,1.886.428,2.816,2.816,0,0,1,1.23.775,2.161,2.161,0,0,1,.51,1.531,2.416,2.416,0,0,1-1.121,2.087,5.29,5.29,0,0,1-3.053.775Zm15.364-9.769v9.66H128.9v-1.458a3.521,3.521,0,0,1-1.394,1.157,4.346,4.346,0,0,1-1.886.41,4.216,4.216,0,0,1-3.044-1.066,4.162,4.162,0,0,1-1.112-3.144v-5.559h1.75v5.359a3,3,0,0,0,.674,2.123,2.514,2.514,0,0,0,1.932.72,2.88,2.88,0,0,0,2.187-.838,3.286,3.286,0,0,0,.8-2.369v-4.994Zm6.871-2.533q-1.569,0-1.567,1.695v.838h2.807v1.44H135.9v8.22h-1.75v-8.22h-1.64v-1.44h1.64v-.857a3.082,3.082,0,0,1,.838-2.278,3.18,3.18,0,0,1,2.351-.838,3.931,3.931,0,0,1,1.094.146,2.691,2.691,0,0,1,.875.419l-.529,1.331a2.181,2.181,0,0,0-1.349-.456Zm6.434,0q-1.569,0-1.567,1.695v.838H145.1v1.44h-2.77v8.22h-1.75v-8.22h-1.64v-1.44h1.64v-.857a3.082,3.082,0,0,1,.838-2.278,3.179,3.179,0,0,1,2.351-.838,3.931,3.931,0,0,1,1.094.146,2.691,2.691,0,0,1,.875.419l-.529,1.331a2.181,2.181,0,0,0-1.349-.456Zm5.231.674a1.169,1.169,0,0,1-.848-.328,1.072,1.072,0,0,1-.337-.8,1.1,1.1,0,0,1,.337-.811,1.148,1.148,0,0,1,.848-.337,1.19,1.19,0,0,1,.848.319,1.042,1.042,0,0,1,.337.793,1.125,1.125,0,0,1-.337.829,1.148,1.148,0,0,1-.848.337Zm-.875,1.859h1.75v9.66h-1.75Zm7.855,9.769a8.12,8.12,0,0,1-2.278-.319,4.98,4.98,0,0,1-1.713-.811l.729-1.385a5.251,5.251,0,0,0,1.549.729,6.379,6.379,0,0,0,1.841.273q2.3,0,2.3-1.312a.849.849,0,0,0-.31-.693,2,2,0,0,0-.775-.374c-.31-.08-.75-.166-1.321-.264a12.965,12.965,0,0,1-1.9-.419,2.939,2.939,0,0,1-1.267-.8,2.226,2.226,0,0,1-.529-1.586,2.477,2.477,0,0,1,1.094-2.105,4.9,4.9,0,0,1,2.934-.793,8.124,8.124,0,0,1,1.932.237,5.179,5.179,0,0,1,1.586.638l-.747,1.385a5.028,5.028,0,0,0-2.789-.766,3.242,3.242,0,0,0-1.695.365,1.1,1.1,0,0,0-.583.966.92.92,0,0,0,.328.747,2.069,2.069,0,0,0,.811.4q.482.126,1.358.292a14.838,14.838,0,0,1,1.886.428,2.815,2.815,0,0,1,1.23.775,2.161,2.161,0,0,1,.51,1.531,2.416,2.416,0,0,1-1.121,2.087,5.29,5.29,0,0,1-3.053.775Zm9.878-9.86a4.368,4.368,0,0,1,3.071.984,3.8,3.8,0,0,1,1.066,2.935v5.832h-1.659v-1.276a2.775,2.775,0,0,1-1.248,1.03,4.764,4.764,0,0,1-1.923.355,4.026,4.026,0,0,1-2.6-.784,2.694,2.694,0,0,1-.046-4.11,4.576,4.576,0,0,1,2.953-.775h2.77v-.346a2.229,2.229,0,0,0-.656-1.731,2.769,2.769,0,0,0-1.932-.6,5.087,5.087,0,0,0-1.677.283,4.311,4.311,0,0,0-1.385.756l-.729-1.312a5.284,5.284,0,0,1,1.786-.92,7.5,7.5,0,0,1,2.205-.319Zm-.4,8.512a3.243,3.243,0,0,0,1.731-.446,2.563,2.563,0,0,0,1.057-1.267V634.14h-2.7q-2.225,0-2.224,1.494a1.356,1.356,0,0,0,.565,1.148,2.578,2.578,0,0,0,1.567.419Zm12.94-8.512a3.989,3.989,0,0,1,2.925,1.066,4.19,4.19,0,0,1,1.084,3.126v5.559h-1.75v-5.358a2.961,2.961,0,0,0-.674-2.114,2.535,2.535,0,0,0-1.932-.711,3.007,3.007,0,0,0-2.242.829,3.243,3.243,0,0,0-.82,2.379v4.976h-1.75v-9.66h1.677v1.458a3.429,3.429,0,0,1,1.431-1.148,5.011,5.011,0,0,1,2.05-.4Zm11.516,9.86a5.357,5.357,0,0,1-2.634-.638,4.69,4.69,0,0,1-1.813-1.759,5.254,5.254,0,0,1,0-5.085,4.62,4.62,0,0,1,1.813-1.75,5.43,5.43,0,0,1,2.634-.629,5.044,5.044,0,0,1,2.342.529,3.761,3.761,0,0,1,1.595,1.531l-1.331.857a2.943,2.943,0,0,0-1.13-1.039,3.23,3.23,0,0,0-1.494-.346,3.454,3.454,0,0,0-1.7.419,3.016,3.016,0,0,0-1.185,1.194,3.938,3.938,0,0,0,0,3.572,2.987,2.987,0,0,0,1.185,1.194,3.454,3.454,0,0,0,1.7.419,3.231,3.231,0,0,0,1.494-.346,2.946,2.946,0,0,0,1.13-1.039l1.331.838a3.8,3.8,0,0,1-1.595,1.54,4.992,4.992,0,0,1-2.342.538Zm14.781-4.885a4.8,4.8,0,0,1-.036.529h-7.837a3.038,3.038,0,0,0,1.121,2.051,3.654,3.654,0,0,0,2.379.775,3.584,3.584,0,0,0,2.789-1.166l.966,1.13a4.212,4.212,0,0,1-1.631,1.167,6.151,6.151,0,0,1-4.894-.228,4.5,4.5,0,0,1-1.832-1.759,5.053,5.053,0,0,1-.647-2.552,5.12,5.12,0,0,1,.629-2.533,4.509,4.509,0,0,1,1.731-1.759,4.937,4.937,0,0,1,2.488-.629,4.827,4.827,0,0,1,2.47.629,4.391,4.391,0,0,1,1.7,1.759,5.349,5.349,0,0,1,.611,2.588Zm-4.775-3.5a3.024,3.024,0,0,0-2.105.766,3.088,3.088,0,0,0-.993,2h6.2a3.1,3.1,0,0,0-.993-2,3,3,0,0,0-2.105-.775Z" transform="translate(64.158 365.668)"/><rect class="c" width="38.338" height="31.437" transform="translate(99.074 938.746)"/><text class="ab" transform="translate(412.09 956.028)"><tspan x="0" y="0">É</tspan></text><text class="ac" transform="translate(430.407 957.028)"><tspan x="0" y="0">quilib</tspan><tspan class="ad" y="0">r</tspan><tspan y="0">e</tspan></text><text class="x" transform="translate(412.09 979.012)"><tspan class="s" x="0" y="0">n</tspan><tspan y="0">on anxiogè</tspan><tspan class="ae" y="0">n</tspan><tspan y="0">e</tspan></text><text class="x" transform="translate(412.09 1000.884)"><tspan x="0" y="0">ou </tspan><tspan class="ad" y="0">c</tspan><tspan y="0">on</tspan><tspan class="z" y="0">f</tspan><tspan y="0">o</tspan><tspan class="af" y="0">r</tspan><tspan y="0">table</tspan></text><rect class="j" width="38.338" height="31.437" transform="translate(353.736 935.367)"/><text class="ab" transform="translate(707.603 956.028)"><tspan x="0" y="0">E</tspan></text><text class="v" transform="translate(724.603 956.139)"><tspan x="0" y="0">n </tspan><tspan class="ag" y="0">e</tspan><tspan class="ah" y="0">x</tspan><tspan class="ai" y="0">c</tspan><tspan y="0">ès</tspan></text><text class="aj" transform="translate(707.603 980.012)"><tspan x="0" y="0">en déso</tspan><tspan class="y" y="0">r</tspan><tspan y="0">d</tspan><tspan class="y" y="0">r</tspan><tspan y="0">e </tspan></text><text class="aj" transform="translate(707.603 1001.884)"><tspan x="0" y="0">ou </tspan><tspan class="y" y="0">r</tspan><tspan y="0">épétitif</tspan></text><rect class="q" width="38.338" height="31.437" transform="translate(649.251 936.634)"/></g></svg>