<?xml version="1.0" encoding="utf-8"?>
<!-- Generator: Adobe Illustrator 23.0.4, SVG Export Plug-In . SVG Version: 6.00 Build 0)  -->
<svg version="1.1" xmlns="http://www.w3.org/2000/svg" xmlns:xlink="http://www.w3.org/1999/xlink" x="0px" y="0px"
	 viewBox="0 0 287.1 123" style="enable-background:new 0 0 287.1 123;" xml:space="preserve">
<style type="text/css">
	.st0{display:none;}
	.st1{display:inline;fill:#F4F4F4;}
	.st2{fill:#383838;}
</style>
<g id="Calque_2" class="st0">
	<rect class="st1" width="287.1" height="123"/>
</g>
<g id="Calque_1">
	<g>
		<path class="st2" d="M79.6,50l-7.4,20.7h-7l-3.9-11.3l-4,11.3h-7L42.9,50h6.9L54,62.6L58.4,50h6.2l4.3,12.6L73.3,50H79.6z"/>
		<path class="st2" d="M85.7,69.7c-1.8-0.9-3.2-2.2-4.2-3.8c-1-1.6-1.5-3.5-1.5-5.5c0-2,0.5-3.9,1.5-5.5c1-1.6,2.4-2.9,4.2-3.8
			c1.8-0.9,3.8-1.4,6-1.4c2.2,0,4.3,0.5,6,1.4c1.8,0.9,3.2,2.2,4.2,3.8c1,1.6,1.5,3.5,1.5,5.5s-0.5,3.9-1.5,5.5s-2.4,2.9-4.2,3.8
			s-3.8,1.4-6,1.4C89.5,71.1,87.5,70.6,85.7,69.7z M94.8,64c0.8-0.9,1.2-2.1,1.2-3.6c0-1.5-0.4-2.7-1.2-3.6
			c-0.8-0.9-1.9-1.3-3.1-1.3c-1.3,0-2.3,0.4-3.1,1.3c-0.8,0.9-1.2,2.1-1.2,3.6c0,1.6,0.4,2.8,1.2,3.6c0.8,0.9,1.9,1.3,3.1,1.3
			C92.9,65.3,94,64.9,94.8,64z"/>
		<path class="st2" d="M116.5,50.4c1.2-0.5,2.5-0.7,4.1-0.7v6.5c-0.7-0.1-1.2-0.1-1.6-0.1c-1.6,0-2.8,0.4-3.6,1.3
			c-0.9,0.8-1.3,2.1-1.3,3.9v9.5h-7.3V50h6.9v2.5C114.4,51.6,115.3,50.9,116.5,50.4z"/>
		<path class="st2" d="M133,63.5l-2.1,2.2v5.1h-7.3V42.4h7.3v14.9l7.4-7.2h8.6l-8.6,8.9l9.3,11.8h-8.8L133,63.5z"/>
		<path class="st2" d="M153.3,69.7c-1.8-0.9-3.2-2.2-4.2-3.8c-1-1.6-1.5-3.5-1.5-5.5s0.5-3.9,1.5-5.5c1-1.6,2.4-2.9,4.2-3.8
			c1.8-0.9,3.9-1.4,6.2-1.4c2.3,0,4.4,0.5,6.1,1.5c1.7,1,2.9,2.4,3.6,4.2l-5.6,2.9c-0.9-1.9-2.3-2.8-4.1-2.8c-1.3,0-2.4,0.4-3.2,1.3
			c-0.9,0.9-1.3,2.1-1.3,3.6c0,1.6,0.4,2.8,1.3,3.6c0.9,0.9,1.9,1.3,3.2,1.3c1.8,0,3.2-0.9,4.1-2.8l5.6,2.9
			c-0.7,1.8-1.9,3.2-3.6,4.2c-1.7,1-3.7,1.5-6.1,1.5C157.2,71.1,155.1,70.6,153.3,69.7z"/>
		<path class="st2" d="M188.6,52c1.8,1.6,2.7,4,2.7,7.2v11.5h-6.8v-2.7c-1,2-3.1,3-6.1,3c-1.6,0-3-0.3-4.2-0.8
			c-1.2-0.6-2.1-1.3-2.7-2.3s-0.9-2-0.9-3.3c0-2,0.8-3.5,2.3-4.6c1.5-1.1,3.8-1.6,7-1.6h4.1c-0.1-2.2-1.6-3.3-4.4-3.3
			c-1,0-2,0.2-3,0.5c-1,0.3-1.9,0.8-2.6,1.3l-2.4-4.9c1.1-0.8,2.5-1.4,4.2-1.8c1.6-0.4,3.3-0.6,4.9-0.6
			C184.2,49.7,186.8,50.5,188.6,52z M182.7,65.9c0.6-0.4,1.1-1,1.4-1.8v-1.8h-3.1c-2.1,0-3.2,0.7-3.2,2.1c0,0.6,0.2,1.1,0.7,1.5
			s1.1,0.6,2,0.6S182,66.3,182.7,65.9z"/>
		<path class="st2" d="M205.7,50.4c1.2-0.5,2.5-0.7,4.1-0.7v6.5c-0.7-0.1-1.2-0.1-1.6-0.1c-1.6,0-2.8,0.4-3.6,1.3
			c-0.9,0.8-1.3,2.1-1.3,3.9v9.5h-7.3V50h6.9v2.5C203.6,51.6,204.5,50.9,205.7,50.4z"/>
		<path class="st2" d="M233.6,62.2h-15.1c0.3,1.1,0.9,1.9,1.8,2.5c0.9,0.6,2,0.9,3.3,0.9c1,0,1.9-0.1,2.6-0.4
			c0.7-0.3,1.5-0.7,2.2-1.4l3.8,4c-2,2.2-5,3.4-8.8,3.4c-2.4,0-4.5-0.5-6.4-1.4s-3.3-2.2-4.3-3.8c-1-1.6-1.5-3.5-1.5-5.5
			c0-2,0.5-3.9,1.5-5.5c1-1.6,2.3-2.9,4.1-3.8s3.7-1.4,5.8-1.4c2.1,0,3.9,0.4,5.6,1.3c1.7,0.9,3,2.1,4,3.7c1,1.6,1.5,3.5,1.5,5.8
			C233.7,60.5,233.7,61.1,233.6,62.2z M219.9,55.8c-0.8,0.6-1.2,1.5-1.4,2.6h8.5c-0.2-1.1-0.7-2-1.4-2.6c-0.8-0.6-1.7-1-2.8-1
			S220.6,55.2,219.9,55.8z"/>
		<path class="st2" d="M237,69.9c-0.8-0.8-1.3-1.8-1.3-3.1c0-1.3,0.4-2.3,1.2-3.1c0.8-0.8,1.9-1.2,3.1-1.2c1.3,0,2.3,0.4,3.1,1.2
			c0.8,0.8,1.2,1.8,1.2,3.1c0,1.2-0.4,2.3-1.2,3.1c-0.8,0.8-1.9,1.2-3.1,1.2C238.9,71.1,237.9,70.7,237,69.9z"/>
	</g>
</g>
</svg>
