<?xml version="1.0" encoding="UTF-8"?>
<svg id="Calque_1" data-name="Calque 1" viewBox="0 0 88.58 43" xmlns="http://www.w3.org/2000/svg">
  <defs>
    <style>
      .cls-1 {
      fill: #fff;
      }

      .cls-2, .cls-3 {
      fill: #2ead73;
      }

      .cls-3 {
      font-family: Montserrat-SemiBold, Montserrat;
      font-size: 6.28px;
      }
    </style>
  </defs>
  <g id="Groupe_476" data-name="Groupe 476" transform="matrix(1, 0, 0, 1, -1.994712, -21.035145)">
    <g>
      <path class="cls-2" d="M62.52,52.24c.14-.11,.29-.23,.4-.34l1.71-1.48c4.54-4,8.11-7.99,8.39-8.3,1.14-1.28,1.48-3.03,.91-4.65-.57-1.66-2-2.85-3.71-3.14-3.45-.6-6.59,.14-9.13,2.11-2.6,2-4.28,5.19-4.54,8.5-.14,1.86,.2,4,.91,6.08-3.08,2.31-5.94,3.88-7.76,3.94-1.37,.03-2.74-.29-3.91-.86-1.08,.97-2.23,1.86-3.42,2.68,2.05,1.43,4.57,2.23,7.16,2.23h.26c2.54-.06,5.68-1.63,8.79-3.8l.17-.11c.17-.11,.34-.26,.51-.37h0c1.14-.77,2.23-1.6,3.25-2.48h0Zm-1.91-6.99c.17-2.17,1.31-4.34,3-5.62,1.23-.97,2.68-1.46,4.34-1.46,.51,0,1.06,.06,1.6,.14,.4,.06,.54,.37,.57,.49,.06,.17,.09,.4-.11,.6-2.43,2.71-5.76,6.02-9.1,8.85-.23-1.06-.34-2.11-.29-3Z"></path>
      <path class="cls-2" d="M79.15,46.07c-4.59,5.34-7.76,9.05-12.01,8.88-1.23-.06-2.4-.51-3.31-1.23-1.03,.91-2.14,1.74-3.28,2.51,1.68,1.63,3.97,2.65,6.39,2.77h.31c6.96,0,12.3-7.16,14.98-10.27l-3.08-2.65Z"></path>
      <path class="cls-2" d="M54.61,41.76c1.08-1.26,1.43-3,.83-4.57-.6-1.57-2-2.68-3.65-2.94-3.74-.51-7.42,.37-10.1,2.48-2.43,1.91-3.91,4.62-4.22,7.85-.34,3.22,.23,5.71,1.08,7.59-.54,.31-1.08,.54-1.6,.74-.09,1.63-.57,3.22-1.46,4.57,1.54-.23,3.14-.8,4.85-1.71l.71-.46c1.54-1.03,3-2.2,4.37-3.48,2.14-2.14,5.22-5.51,9.19-10.07Zm-12.73,7.93c-.46-1.34-.6-2.91-.4-4.65,.23-2.11,1.14-3.88,2.71-5.08,1.48-1.14,3.42-1.77,5.51-1.77,.51,0,1,.03,1.51,.11,.26,.03,.37,.2,.43,.34,.06,.17,.03,.34-.09,.49-4.74,5.42-7.88,8.79-9.67,10.56Z"></path>
      <path class="cls-2" d="M34.55,34.97c.46-2.34-.06-4.62-1.46-6.45-1.57-2.08-4.11-3.37-7.11-3.62-.37-.03-.74-.06-1.08-.06-2.51,0-5.02,.71-7.28,2.05-3.88,2.37-7.39,9.5-9.02,13.3l-.14,.26c-2.88,.31-3.05,4.4,0,4.91l.14,.29c1.66,3.8,5.14,10.96,9.02,13.3,2.23,1.34,4.74,2.05,7.28,2.05,.37,0,.74-.03,1.08-.06,3-.26,5.51-1.54,7.11-3.62,1.4-1.83,1.88-4.11,1.46-6.45-.29-1.6-1-2.91-2-3.94,1.08-1.66,1.71-3.25,1.77-3.37,.14-.34,.14-.71,0-1.03-.03-.09-.71-1.8-1.88-3.51l.06-.06c1.03-1.11,1.74-2.43,2.05-4Zm-20.66,3.65c1.48-2.91,3.77-6.93,5.85-8.19,1.68-1.03,3.57-1.57,5.31-1.57,2.03,0,3.71,.77,4.74,2.14,.86,1.14,.86,2.37,.68,3.2-.34,1.83-1.63,3.03-3.71,4.08-3.65,1.86-11.56,1.86-11.93,1.86-.91,0-1.34-.68-.94-1.51Zm12.9,5.25c-.4-.09-.83-.14-1.2-.17,0,0-.14-.03-.4-.03,0-.4,0-.83-.03-1.23,.37-.06,.74-.09,1.14-.14,.09,0,.23-.06,.43-.11,.03,.57,.06,1.14,.06,1.68Zm-4.4-.49c-2.17-.23-4.62-.49-4.62-.49,.11-.06,1.63,.06,4.59-.14,0,.17,.03,.4,.03,.63Zm7.39,11.47c-.97,1.28-2.77,2.03-4.88,2.03-1.77,0-3.6-.51-5.14-1.46-2.08-1.26-4.4-5.28-5.85-8.19-.4-.83,0-1.51,.91-1.51h0c.4,0,9.3,.83,11.96,1.86,2.2,.86,3.37,2.25,3.71,4.08,.14,.83,.14,2.05-.71,3.2Zm.54-9.65c-.26-.14-.51-.29-.77-.4,.03-1.2,0-2.4-.09-3.57,.26-.11,.51-.26,.77-.4,.57,.86,1,1.74,1.23,2.25-.23,.49-.6,1.28-1.14,2.11Z"></path>
      <text class="cls-3" transform="translate(40.68 29.64)" style="white-space: pre;"><tspan x="0" y="0">P R O F I L</tspan></text>
    </g>
  </g>
</svg>